<?xml version="1.0" encoding="utf-8"?>
<!-- Generator: Adobe Illustrator 17.0.0, SVG Export Plug-In . SVG Version: 6.00 Build 0)  -->
<!DOCTYPE svg PUBLIC "-//W3C//DTD SVG 1.1//EN" "http://www.w3.org/Graphics/SVG/1.1/DTD/svg11.dtd">
<svg version="1.1" id="Capa_1" xmlns="http://www.w3.org/2000/svg" xmlns:xlink="http://www.w3.org/1999/xlink" x="0px" y="0px"
	 width="500px" height="500px" viewBox="0 0 500 500" enable-background="new 0 0 500 500" xml:space="preserve">
<g>
	<path d="M294.219,250.005L490.838,53.386c12.216-12.205,12.216-32.009,0-44.214c-12.216-12.216-31.999-12.216-44.214,0
		L250.005,205.791L53.376,9.172C41.16-3.044,21.377-3.044,9.162,9.172c-12.216,12.205-12.216,32.009,0,44.214l196.629,196.619
		L9.162,446.624c-12.216,12.205-12.216,32.009,0,44.214c6.108,6.097,14.113,9.151,22.107,9.151s15.999-3.054,22.107-9.162
		l196.629-196.619l196.619,196.619c6.108,6.108,14.113,9.162,22.107,9.162s15.999-3.054,22.107-9.162
		c12.216-12.205,12.216-32.009,0-44.214L294.219,250.005z"/>
</g>
</svg>
