<svg width="532" height="234" viewBox="0 0 532 234" fill="none" xmlns="http://www.w3.org/2000/svg">
<path d="M130.195 58.04H140.235C143.301 58.04 145.981 58.6 148.275 59.72C150.568 60.84 152.328 62.4533 153.555 64.56C154.808 66.64 155.435 69.08 155.435 71.88C155.435 76.52 154.075 80.04 151.355 82.44C148.635 84.8133 144.861 86 140.035 86H130.195V58.04ZM140.635 80.04C143.061 80.04 144.915 79.3067 146.195 77.84C147.501 76.3733 148.155 74.3867 148.155 71.88C148.155 69.5867 147.501 67.7067 146.195 66.24C144.915 64.7467 143.141 64 140.875 64H137.275V80.04H140.635ZM166.241 58.04H186.081V64H173.321V69.24H182.641V74.8H173.321V80.04H186.081V86H166.241V58.04ZM205.618 86.6C203.858 86.6 202.111 86.4267 200.378 86.08C198.644 85.76 197.218 85.3067 196.098 84.72V78.36C197.538 79.1067 199.031 79.6667 200.578 80.04C202.151 80.4133 203.644 80.6 205.058 80.6C206.364 80.6 207.351 80.4 208.018 80C208.684 79.6 209.018 79.0267 209.018 78.28C209.018 77.72 208.831 77.24 208.458 76.84C208.111 76.4133 207.591 76.0267 206.898 75.68C206.204 75.3333 205.124 74.8533 203.658 74.24C201.071 73.1467 199.191 71.9333 198.018 70.6C196.844 69.2667 196.258 67.6267 196.258 65.68C196.258 64.08 196.698 62.6533 197.578 61.4C198.484 60.1467 199.738 59.1733 201.338 58.48C202.938 57.7867 204.778 57.44 206.858 57.44C208.564 57.44 210.084 57.5733 211.418 57.84C212.751 58.1067 214.031 58.5333 215.258 59.12V65.32C212.911 64.0933 210.551 63.48 208.178 63.48C206.898 63.48 205.871 63.6933 205.098 64.12C204.351 64.52 203.978 65.1067 203.978 65.88C203.978 66.6533 204.364 67.28 205.138 67.76C205.911 68.24 207.338 68.8933 209.418 69.72C211.311 70.4933 212.778 71.2533 213.818 72C214.884 72.7467 215.658 73.6133 216.138 74.6C216.618 75.5867 216.858 76.84 216.858 78.36C216.858 80.9467 215.911 82.9733 214.018 84.44C212.151 85.88 209.351 86.6 205.618 86.6ZM227.671 58.04H234.751V86H227.671V58.04ZM260.775 86.6C257.735 86.6 255.055 86.0133 252.735 84.84C250.442 83.6667 248.668 81.9867 247.415 79.8C246.162 77.5867 245.535 75 245.535 72.04C245.535 69.08 246.162 66.5067 247.415 64.32C248.668 62.1067 250.442 60.4133 252.735 59.24C255.055 58.04 257.735 57.44 260.775 57.44C262.802 57.44 264.588 57.64 266.135 58.04C267.708 58.4133 269.162 59.0267 270.495 59.88V66.6C269.322 65.6667 267.988 65 266.495 64.6C265.028 64.1733 263.335 63.96 261.415 63.96C259.762 63.96 258.282 64.2933 256.975 64.96C255.695 65.6 254.682 66.5333 253.935 67.76C253.188 68.9867 252.815 70.4133 252.815 72.04C252.815 74.5733 253.548 76.5733 255.015 78.04C256.508 79.5067 258.522 80.24 261.055 80.24C262.468 80.24 263.655 80 264.615 79.52V75.04H260.335V70.08H271.335V84C268.482 85.7333 264.962 86.6 260.775 86.6ZM282.148 58.04H289.148L299.428 74.68V58.04H306.508V86H299.548L289.228 69.32V86H282.148V58.04ZM318.116 58.04H337.956V64H325.196V69.24H334.516V74.8H325.196V80.04H337.956V86H318.116V58.04ZM348.773 58.04H361.333C364.613 58.04 367.173 58.8667 369.013 60.52C370.879 62.1733 371.813 64.5467 371.813 67.64C371.813 69.72 371.359 71.4933 370.453 72.96C369.546 74.4267 368.266 75.52 366.613 76.24L371.573 86H364.293L359.853 77.24H355.853V86H348.773V58.04ZM360.093 71.28C361.506 71.28 362.599 71.0133 363.373 70.48C364.146 69.92 364.533 68.9733 364.533 67.64C364.533 66.2533 364.146 65.3067 363.373 64.8C362.626 64.2667 361.533 64 360.093 64H355.853V71.28H360.093ZM391.352 86.6C389.592 86.6 387.845 86.4267 386.112 86.08C384.379 85.76 382.952 85.3067 381.832 84.72V78.36C383.272 79.1067 384.765 79.6667 386.312 80.04C387.885 80.4133 389.379 80.6 390.792 80.6C392.099 80.6 393.085 80.4 393.752 80C394.419 79.6 394.752 79.0267 394.752 78.28C394.752 77.72 394.565 77.24 394.192 76.84C393.845 76.4133 393.325 76.0267 392.632 75.68C391.939 75.3333 390.859 74.8533 389.392 74.24C386.805 73.1467 384.925 71.9333 383.752 70.6C382.579 69.2667 381.992 67.6267 381.992 65.68C381.992 64.08 382.432 62.6533 383.312 61.4C384.219 60.1467 385.472 59.1733 387.072 58.48C388.672 57.7867 390.512 57.44 392.592 57.44C394.299 57.44 395.819 57.5733 397.152 57.84C398.485 58.1067 399.765 58.5333 400.992 59.12V65.32C398.645 64.0933 396.285 63.48 393.912 63.48C392.632 63.48 391.605 63.6933 390.832 64.12C390.085 64.52 389.712 65.1067 389.712 65.88C389.712 66.6533 390.099 67.28 390.872 67.76C391.645 68.24 393.072 68.8933 395.152 69.72C397.045 70.4933 398.512 71.2533 399.552 72C400.619 72.7467 401.392 73.6133 401.872 74.6C402.352 75.5867 402.592 76.84 402.592 78.36C402.592 80.9467 401.645 82.9733 399.752 84.44C397.885 85.88 395.085 86.6 391.352 86.6ZM70.9813 102.04H77.9413L89.1013 130H81.8613L79.6213 124.24H69.3013L67.0613 130H59.7813L70.9813 102.04ZM77.8613 118.8L74.4613 109.4L71.0213 118.8H77.8613ZM106.833 130.6C105.073 130.6 103.326 130.427 101.592 130.08C99.8592 129.76 98.4325 129.307 97.3125 128.72V122.36C98.7525 123.107 100.246 123.667 101.793 124.04C103.366 124.413 104.859 124.6 106.273 124.6C107.579 124.6 108.566 124.4 109.233 124C109.899 123.6 110.233 123.027 110.233 122.28C110.233 121.72 110.046 121.24 109.673 120.84C109.326 120.413 108.806 120.027 108.113 119.68C107.419 119.333 106.339 118.853 104.873 118.24C102.286 117.147 100.406 115.933 99.2325 114.6C98.0592 113.267 97.4725 111.627 97.4725 109.68C97.4725 108.08 97.9125 106.653 98.7925 105.4C99.6992 104.147 100.953 103.173 102.553 102.48C104.153 101.787 105.993 101.44 108.072 101.44C109.779 101.44 111.299 101.573 112.633 101.84C113.966 102.107 115.246 102.533 116.473 103.12V109.32C114.126 108.093 111.766 107.48 109.393 107.48C108.113 107.48 107.086 107.693 106.312 108.12C105.566 108.52 105.193 109.107 105.193 109.88C105.193 110.653 105.579 111.28 106.353 111.76C107.126 112.24 108.553 112.893 110.633 113.72C112.526 114.493 113.993 115.253 115.033 116C116.099 116.747 116.873 117.613 117.353 118.6C117.833 119.587 118.073 120.84 118.073 122.36C118.073 124.947 117.126 126.973 115.233 128.44C113.366 129.88 110.566 130.6 106.833 130.6ZM150.48 102.04H157.48L167.76 118.68V102.04H174.84V130H167.88L157.56 113.32V130H150.48V102.04ZM196.848 102.04H203.808L214.968 130H207.728L205.488 124.24H195.168L192.928 130H185.648L196.848 102.04ZM203.728 118.8L200.328 109.4L196.888 118.8H203.728ZM219.195 102.04H226.755L233.875 120.64L240.995 102.04H248.515L237.355 130H230.395L219.195 102.04ZM259.323 102.04H266.403V130H259.323V102.04ZM292.428 130.6C289.388 130.6 286.708 130.013 284.388 128.84C282.094 127.667 280.321 125.987 279.068 123.8C277.814 121.587 277.188 119 277.188 116.04C277.188 113.08 277.814 110.507 279.068 108.32C280.321 106.107 282.094 104.413 284.388 103.24C286.708 102.04 289.388 101.44 292.428 101.44C294.454 101.44 296.241 101.64 297.788 102.04C299.361 102.413 300.814 103.027 302.148 103.88V110.6C300.974 109.667 299.641 109 298.148 108.6C296.681 108.173 294.988 107.96 293.068 107.96C291.414 107.96 289.934 108.293 288.628 108.96C287.348 109.6 286.334 110.533 285.588 111.76C284.841 112.987 284.468 114.413 284.468 116.04C284.468 118.573 285.201 120.573 286.668 122.04C288.161 123.507 290.174 124.24 292.708 124.24C294.121 124.24 295.308 124 296.268 123.52V119.04H291.988V114.08H302.988V128C300.134 129.733 296.614 130.6 292.428 130.6ZM324.2 102.04H331.16L342.32 130H335.08L332.84 124.24H322.52L320.28 130H313L324.2 102.04ZM331.08 118.8L327.68 109.4L324.24 118.8H331.08ZM354.608 108H346.728V102.04H369.608V108H361.688V130H354.608V108ZM392.634 130.6C389.807 130.6 387.247 129.987 384.954 128.76C382.687 127.533 380.887 125.827 379.554 123.64C378.247 121.427 377.594 118.893 377.594 116.04C377.594 113.187 378.247 110.653 379.554 108.44C380.887 106.227 382.687 104.507 384.954 103.28C387.247 102.053 389.807 101.44 392.634 101.44C395.434 101.44 397.967 102.053 400.234 103.28C402.527 104.507 404.327 106.227 405.634 108.44C406.94 110.653 407.594 113.187 407.594 116.04C407.594 118.893 406.94 121.427 405.634 123.64C404.327 125.827 402.527 127.533 400.234 128.76C397.967 129.987 395.434 130.6 392.634 130.6ZM392.634 123.96C394.047 123.96 395.34 123.64 396.514 123C397.687 122.36 398.62 121.44 399.314 120.24C400.007 119.04 400.354 117.64 400.354 116.04C400.354 114.44 400.007 113.053 399.314 111.88C398.647 110.68 397.727 109.76 396.554 109.12C395.38 108.453 394.074 108.12 392.634 108.12C391.167 108.12 389.847 108.453 388.674 109.12C387.5 109.76 386.567 110.68 385.874 111.88C385.207 113.053 384.874 114.44 384.874 116.04C384.874 117.64 385.207 119.04 385.874 120.24C386.567 121.44 387.5 122.36 388.674 123C389.874 123.64 391.194 123.96 392.634 123.96ZM418.386 102.04H430.946C434.226 102.04 436.786 102.867 438.626 104.52C440.493 106.173 441.426 108.547 441.426 111.64C441.426 113.72 440.973 115.493 440.066 116.96C439.159 118.427 437.879 119.52 436.226 120.24L441.186 130H433.906L429.466 121.24H425.466V130H418.386V102.04ZM429.706 115.28C431.119 115.28 432.213 115.013 432.986 114.48C433.759 113.92 434.146 112.973 434.146 111.64C434.146 110.253 433.759 109.307 432.986 108.8C432.239 108.267 431.146 108 429.706 108H425.466V115.28H429.706ZM460.965 130.6C459.205 130.6 457.459 130.427 455.725 130.08C453.992 129.76 452.565 129.307 451.445 128.72V122.36C452.885 123.107 454.379 123.667 455.925 124.04C457.499 124.413 458.992 124.6 460.405 124.6C461.712 124.6 462.699 124.4 463.365 124C464.032 123.6 464.365 123.027 464.365 122.28C464.365 121.72 464.179 121.24 463.805 120.84C463.459 120.413 462.939 120.027 462.245 119.68C461.552 119.333 460.472 118.853 459.005 118.24C456.419 117.147 454.539 115.933 453.365 114.6C452.192 113.267 451.605 111.627 451.605 109.68C451.605 108.08 452.045 106.653 452.925 105.4C453.832 104.147 455.085 103.173 456.685 102.48C458.285 101.787 460.125 101.44 462.205 101.44C463.912 101.44 465.432 101.573 466.765 101.84C468.099 102.107 469.379 102.533 470.605 103.12V109.32C468.259 108.093 465.899 107.48 463.525 107.48C462.245 107.48 461.219 107.693 460.445 108.12C459.699 108.52 459.325 109.107 459.325 109.88C459.325 110.653 459.712 111.28 460.485 111.76C461.259 112.24 462.685 112.893 464.765 113.72C466.659 114.493 468.125 115.253 469.165 116C470.232 116.747 471.005 117.613 471.485 118.6C471.965 119.587 472.205 120.84 472.205 122.36C472.205 124.947 471.259 126.973 469.365 128.44C467.499 129.88 464.699 130.6 460.965 130.6ZM133.458 174.6C130.631 174.6 128.071 173.987 125.778 172.76C123.511 171.533 121.711 169.827 120.378 167.64C119.071 165.427 118.418 162.893 118.418 160.04C118.418 157.187 119.071 154.653 120.378 152.44C121.711 150.227 123.511 148.507 125.778 147.28C128.071 146.053 130.631 145.44 133.458 145.44C136.258 145.44 138.791 146.053 141.058 147.28C143.351 148.507 145.151 150.227 146.458 152.44C147.765 154.653 148.418 157.187 148.418 160.04C148.418 162.893 147.765 165.427 146.458 167.64C145.151 169.827 143.351 171.533 141.058 172.76C138.791 173.987 136.258 174.6 133.458 174.6ZM133.458 167.96C134.871 167.96 136.165 167.64 137.338 167C138.511 166.36 139.445 165.44 140.138 164.24C140.831 163.04 141.178 161.64 141.178 160.04C141.178 158.44 140.831 157.053 140.138 155.88C139.471 154.68 138.551 153.76 137.378 153.12C136.205 152.453 134.898 152.12 133.458 152.12C131.991 152.12 130.671 152.453 129.498 153.12C128.325 153.76 127.391 154.68 126.698 155.88C126.031 157.053 125.698 158.44 125.698 160.04C125.698 161.64 126.031 163.04 126.698 164.24C127.391 165.44 128.325 166.36 129.498 167C130.698 167.64 132.018 167.96 133.458 167.96ZM159.21 146.04H179.05V152H166.29V157.24H175.61V162.8H166.29V174H159.21V146.04ZM225.08 174.6C222.04 174.6 219.36 174.013 217.04 172.84C214.747 171.667 212.973 169.987 211.72 167.8C210.467 165.587 209.84 163 209.84 160.04C209.84 157.08 210.467 154.507 211.72 152.32C212.973 150.107 214.747 148.413 217.04 147.24C219.36 146.04 222.04 145.44 225.08 145.44C227.08 145.44 228.867 145.64 230.44 146.04C232.013 146.44 233.467 147.067 234.8 147.92V154.64C233.627 153.707 232.293 153.027 230.8 152.6C229.333 152.173 227.64 151.96 225.72 151.96C222.973 151.96 220.853 152.68 219.36 154.12C217.867 155.533 217.12 157.507 217.12 160.04C217.12 162.573 217.867 164.56 219.36 166C220.88 167.44 223 168.16 225.72 168.16C227.64 168.16 229.36 167.933 230.88 167.48C232.4 167.027 233.813 166.307 235.12 165.32V172C232.587 173.733 229.24 174.6 225.08 174.6ZM245.905 146.04H252.985V156.84H263.945V146.04H271.025V174H263.945V162.72H252.985V174H245.905V146.04ZM293.016 146.04H299.976L311.136 174H303.896L301.656 168.24H291.336L289.096 174H281.816L293.016 146.04ZM299.896 162.8L296.496 153.4L293.056 162.8H299.896ZM321.945 146.04H328.945L339.225 162.68V146.04H346.305V174H339.345L329.025 157.32V174H321.945V146.04ZM372.353 174.6C369.313 174.6 366.633 174.013 364.313 172.84C362.02 171.667 360.247 169.987 358.993 167.8C357.74 165.587 357.113 163 357.113 160.04C357.113 157.08 357.74 154.507 358.993 152.32C360.247 150.107 362.02 148.413 364.313 147.24C366.633 146.04 369.313 145.44 372.353 145.44C374.38 145.44 376.167 145.64 377.713 146.04C379.287 146.413 380.74 147.027 382.073 147.88V154.6C380.9 153.667 379.567 153 378.073 152.6C376.607 152.173 374.913 151.96 372.993 151.96C371.34 151.96 369.86 152.293 368.553 152.96C367.273 153.6 366.26 154.533 365.513 155.76C364.767 156.987 364.393 158.413 364.393 160.04C364.393 162.573 365.127 164.573 366.593 166.04C368.087 167.507 370.1 168.24 372.633 168.24C374.047 168.24 375.233 168 376.193 167.52V163.04H371.913V158.08H382.913V172C380.06 173.733 376.54 174.6 372.353 174.6ZM393.726 146.04H413.566V152H400.806V157.24H410.126V162.8H400.806V168.04H413.566V174H393.726V146.04Z" fill="white"/>
<path d="M104 70H11V161.5H89.5" stroke="white" stroke-width="4"/>
<path d="M428 71H521V163H442.5" stroke="white" stroke-width="4"/>
</svg>
