<svg width="1074" height="422" viewBox="0 0 1074 422" fill="none" xmlns="http://www.w3.org/2000/svg">
<path d="M132.211 325.254C127.126 305.957 109.133 281.445 69.626 281.445C32.5965 281.445 1.04309 309.086 0 350.028H39.8981C40.8108 329.427 56.3267 317.431 69.8868 317.431C86.4458 317.431 95.7032 328.775 98.5717 336.207C98.8325 336.989 99.0932 337.771 99.2236 338.423L115.261 332.947L132.733 326.949C132.602 326.428 132.342 325.776 132.211 325.254Z" fill="#BB6BD9"/>
<path d="M39.7676 351.723C39.7676 351.201 39.7676 350.549 39.7676 350.028H-3.05176e-05C-3.05176e-05 350.419 -3.05176e-05 350.81 -3.05176e-05 351.201C-3.05176e-05 351.331 -3.05176e-05 351.592 -3.05176e-05 351.723C-3.05176e-05 351.853 -3.05176e-05 352.114 -3.05176e-05 352.244C0.130355 359.415 1.17344 366.195 2.99884 372.454L44.2008 369.455C41.4627 364.5 39.7676 358.503 39.7676 351.723Z" fill="#BB6BD9"/>
<path d="M66.236 421.87C67.4095 421.87 68.5829 422 69.626 422C110.306 422 128.169 395.923 132.602 376.365L98.1805 367.76C95.0513 375.192 85.7939 385.883 69.7564 385.883C68.5829 385.883 67.4095 385.753 66.236 385.623C57.7609 384.319 49.0251 378.712 44.0704 369.324L2.86847 372.323C11.2132 401.53 36.7688 420.566 66.236 421.87Z" fill="#9B45BB"/>
<path d="M378.249 419.132H421.928V283.922H378.249V419.132ZM290.63 419.132H338.221V283.922H290.63V419.132Z" fill="#BB6BD9"/>
<path d="M338.351 284.052L421.928 401.399L378.249 419.132L290.63 300.872" fill="#9B45BB"/>
<path d="M378.249 340.249L421.928 401.4V419.132H378.249V340.249Z" fill="#9B45BB"/>
<path d="M290.63 284.052H338.221V365.152L290.63 300.872V284.052Z" fill="#BB6BD9"/>
<path d="M179.15 350.419C179.15 329.687 194.014 320.169 207.965 320.169C209.53 320.169 211.095 320.3 212.659 320.56C217.223 321.343 221.786 323.038 225.698 326.036C228.306 327.992 230.652 330.47 232.348 333.599L263.119 304.914C259.337 300.35 255.165 296.309 250.341 292.919C239.649 285.226 226.611 280.662 212.529 279.75C210.964 279.619 209.4 279.619 207.835 279.619C169.371 279.619 136.905 307.522 136.905 350.679C136.905 372.323 145.119 390.186 158.158 402.443L188.799 373.888C183.192 368.933 179.15 361.241 179.15 350.419Z" fill="#BB6BD9"/>
<path d="M212.659 421.349C248.776 419.132 278.634 391.881 278.634 350.679C278.634 343.769 277.852 337.25 276.288 331.252C273.68 321.212 269.116 312.346 263.119 304.914L232.347 333.599C232.999 334.772 233.651 335.946 234.173 337.25C235.738 341.031 236.52 345.334 236.52 350.419C236.52 368.803 224.785 378.191 212.529 380.147C210.964 380.407 209.4 380.538 207.835 380.538C201.185 380.538 194.275 378.452 188.929 373.888L158.288 402.443C171.197 414.569 188.799 421.479 207.835 421.479C209.53 421.479 211.095 421.349 212.659 421.349Z" fill="#9B45BB"/>
<path d="M479.559 340.379H544.361V376.235H479.559V419.132H433.663V284.182H479.559H551.532V323.95H479.559V340.379Z" fill="#BB6BD9"/>
<path d="M479.559 284.182H433.663V323.95H479.559V284.182Z" fill="#9B45BB"/>
<path d="M479.559 340.249H433.663V376.105H479.559V340.249Z" fill="#9B45BB"/>
<path d="M690.279 0H573.771V259.324H662.216V199.191H690.279C769.955 199.191 804.281 156.096 804.281 99.7208C804.281 43.0954 769.704 0 690.279 0ZM690.279 125.027H662.216V74.1642H690.279C704.56 74.1642 718.341 83.9359 718.341 99.7208C718.341 115.506 704.56 125.027 690.279 125.027ZM985.182 0V94.9603H913.022V0H824.576V259.324H913.022V169.124H985.182V259.575H1073.63V0H985.182Z" fill="#00B6E0"/>
<path d="M825.077 169.626H913.523V95.4615H825.077V169.626ZM985.432 95.4615V169.626H1073.88V95.4615H985.432ZM574.021 199.692H662.467V125.528H574.021V199.692ZM574.021 74.6654H662.467V0.501221H574.021V74.6654Z" fill="#007BBF"/>
<path d="M550.97 0.501221H462.524L413.165 49.3594L363.806 0.501221H274.358V74.6654L330.482 130.289L274.358 185.912V260.076H363.806L413.165 211.218L462.524 260.076H550.97V185.912L494.846 130.289L550.97 74.6654V0.501221ZM162.61 134.799C162.61 166.118 146.825 178.896 126.029 178.896C105.233 178.896 88.1953 166.118 88.1953 134.799C88.1953 103.479 88.1953 0.501221 88.1953 0.501221H0V134.799C0.250555 217.732 51.3637 256.067 116.508 259.575C119.765 259.825 132.042 259.825 135.3 259.575C200.193 256.067 251.056 217.231 251.056 134.799V0.501221H162.61V134.799Z" fill="#FF422E"/>
<path d="M462.524 0.501221V74.6654H550.719V0.501221H462.524ZM274.357 74.6654H362.553V0.501221H274.107L274.357 74.6654ZM462.524 259.825H550.719V185.912H462.274L462.524 259.825ZM274.357 259.825H360.298V185.912H274.357V259.825ZM162.61 74.6654H251.056V0.501221H162.61V74.6654ZM0 74.6654H88.1953V0.501221H0V74.6654Z" fill="#CE0000"/>
<path d="M587.148 334.449C586.489 332.734 585.829 327.192 585.829 322.97C585.829 298.166 604.432 276 637.813 276C669.742 276 689.401 296.715 689.401 321.387C689.401 339.331 679.769 353.976 661.957 364.531L635.702 380.1C631.612 382.606 628.181 385.377 626.334 389.467H690.588V417.57H585.037C585.037 392.238 592.294 371.26 617.758 356.615L640.451 343.421C651.402 336.956 655.624 331.283 655.624 322.047C655.624 313.339 649.423 305.687 637.021 305.687C623.959 305.687 617.494 314.658 617.494 326.137C617.494 328.908 617.89 331.942 618.814 334.713L587.148 334.449Z" fill="#BB6BD9"/>
<path d="M716.316 299.749C725.552 285.895 740.856 276.132 763.418 276.132C786.111 276.132 801.548 285.895 810.652 299.749C820.283 314.262 822.79 331.546 822.79 348.566C822.79 365.586 820.283 382.87 810.652 397.383C801.416 410.973 786.111 421 763.418 421C740.988 421 725.552 410.973 716.316 397.383C706.684 382.87 704.178 365.586 704.178 348.566C704.178 331.546 706.684 314.262 716.316 299.749ZM743.099 378.648C746.926 386.3 753.127 391.446 763.418 391.446C773.841 391.446 779.91 386.3 783.736 378.648C787.826 370.6 789.146 359.649 789.146 348.566C789.146 337.483 787.826 326.532 783.736 318.484C779.91 310.832 773.841 305.686 763.418 305.686C753.127 305.686 746.926 310.832 743.099 318.484C739.273 326.532 737.954 337.483 737.954 348.566C737.954 359.649 739.273 370.468 743.099 378.648Z" fill="#BB6BD9"/>
<path d="M838.359 334.449C837.699 332.733 837.039 327.192 837.039 322.97C837.039 298.166 855.642 276 889.023 276C920.952 276 940.611 296.714 940.611 321.387C940.611 339.33 930.979 353.975 913.167 364.53L886.912 380.099C882.822 382.606 879.391 385.377 877.544 389.467H941.798V417.57H836.248C836.248 392.237 843.504 371.259 868.968 356.614L891.662 343.42C902.612 336.955 906.834 331.282 906.834 322.046C906.834 313.338 900.633 305.686 888.231 305.686C875.169 305.686 868.704 314.658 868.704 326.137C868.704 328.907 869.1 331.942 870.024 334.712L838.359 334.449Z" fill="#BB6BD9"/>
<path d="M967.526 299.749C976.762 285.895 992.066 276.132 1014.63 276.132C1037.32 276.132 1052.76 285.895 1061.86 299.749C1071.49 314.262 1074 331.546 1074 348.566C1074 365.586 1071.49 382.87 1061.86 397.383C1052.63 410.973 1037.32 421 1014.63 421C992.198 421 976.762 410.973 967.526 397.383C957.894 382.87 955.388 365.586 955.388 348.566C955.388 331.546 957.894 314.262 967.526 299.749ZM994.309 378.648C998.136 386.3 1004.34 391.446 1014.63 391.446C1025.05 391.446 1031.12 386.3 1034.95 378.648C1039.04 370.6 1040.36 359.649 1040.36 348.566C1040.36 337.483 1039.04 326.532 1034.95 318.484C1031.12 310.832 1025.05 305.686 1014.63 305.686C1004.34 305.686 998.136 310.832 994.309 318.484C990.483 326.532 989.164 337.483 989.164 348.566C989.164 359.649 990.483 370.468 994.309 378.648Z" fill="#BB6BD9"/>
</svg>
