<svg width="3301" height="1135" viewBox="0 0 3301 1135" fill="none" xmlns="http://www.w3.org/2000/svg">
<path d="M2 579.721C354.953 358.999 1679.22 -48.6389 1741.67 707.687M1741.67 707.687C1804.12 1464.01 3075.15 679.802 3299 364.666M1741.67 707.687C1804.12 1464.01 3075.15 524.46 3299 209.324M1741.67 707.687C1804.12 1464.01 3070.42 317.136 3294.26 2M1741.67 707.687C1679.22 -48.6389 354.953 514.372 2 735.093M1741.67 707.687C1679.22 -48.6389 354.953 703.851 2 924.573M1741.67 707.687C1679.22 -48.6389 354.953 213.1 2 433.822M1741.67 707.687C1679.22 -48.6389 354.953 912.278 2 1133M1741.67 707.687C1804.12 1464.01 3075.15 867.48 3299 552.345M1741.67 707.687C1804.12 1464.01 3070.42 1022.82 3294.26 707.687" stroke="url(#paint0_linear)" stroke-width="4" stroke-linejoin="round" stroke-dasharray="5 5"/>
<defs>
<linearGradient id="paint0_linear" x1="3299" y1="372.5" x2="1.99555" y2="419.173" gradientUnits="userSpaceOnUse">
<stop stop-color="#49DDFF"/>
<stop offset="0.401042" stop-color="#8505FF"/>
<stop offset="0.510417" stop-color="#E8006F"/>
<stop offset="0.645833" stop-color="#8505FF"/>
<stop offset="1" stop-color="#49DDFF"/>
</linearGradient>
</defs>
</svg>
