<svg width="1600" height="900" viewBox="0 0 1600 900" fill="none" xmlns="http://www.w3.org/2000/svg">
<g clip-path="url(#clip0)">
<rect width="1600" height="900" fill="black"/>
<rect width="1600" height="900" fill="url(#paint0_radial)"/>
<rect width="1601" height="900" fill="white"/>
<path opacity="0.5" d="M1763.28 489.446C1665.95 705.532 1498.33 988.521 1281.78 734.12M1281.78 734.12C932.612 488.169 892.055 991.649 885.064 1203.18M1281.78 734.12C932.612 488.169 940.603 1057.71 933.612 1269.25M1281.78 734.12C932.612 488.169 1002.06 1136.67 995.07 1348.2M1281.78 734.12C1501.02 1008.96 1635.76 644.075 1733.09 427.989M1281.78 734.12C1501.02 1008.96 1635.76 486.575 1733.09 270.489M1281.78 734.12C1501.02 1008.96 1690.65 739.138 1787.98 523.052M1281.78 734.12C1501.02 1008.96 1590.17 378.575 1687.5 162.489M1281.78 734.12C932.612 488.169 833.401 911.834 826.41 1123.37M1281.78 734.12C932.612 488.169 784.552 827.812 780.094 1055.66" stroke="url(#paint1_linear)" stroke-linejoin="round" stroke-dasharray="5 5"/>
<path opacity="0.5" d="M-110.328 477.449C220.818 208.68 533.204 -233.017 757.302 105.614M757.302 105.614C981.399 444.244 1105.96 -12.4134 1279.53 -267.913M757.302 105.614C981.399 444.244 1073.64 -87.8376 1247.21 -343.337M757.302 105.614C981.399 444.244 1025.44 -186.333 1199.01 -441.832M757.302 105.614C533.204 -233.017 253.148 284.119 -77.9978 552.888M757.302 105.614C533.204 -233.017 292.575 376.117 -38.5705 644.886M757.302 105.614C533.204 -233.017 190.459 137.841 -140.687 406.61M757.302 105.614C533.204 -233.017 335.945 477.315 4.79932 746.084M757.302 105.614C981.399 444.244 1145.01 78.7114 1318.59 -176.788M757.302 105.614C981.399 444.244 1172.28 156.304 1345.85 -99.1957" stroke="url(#paint2_linear)" stroke-linejoin="round" stroke-dasharray="5 5"/>
<g opacity="0.25">
<g opacity="0.2" filter="url(#filter0_f)">
<path d="M364.963 256.554L354.108 282.517L351.633 269.884L339 267.408L364.963 256.554Z" fill="#E8006F"/>
<path d="M740.963 162.554L730.108 188.517L727.633 175.884L715 173.408L740.963 162.554Z" fill="#E8006F"/>
<path d="M37.9625 145.554L27.1082 171.517L24.6329 158.884L12 156.408L37.9625 145.554Z" fill="#E8006F"/>
</g>
<path d="M203.346 334.121L190.241 365.467L187.253 350.214L172 347.226L203.346 334.121Z" fill="url(#paint3_linear)"/>
<path d="M847.346 70.1205L834.241 101.467L831.253 86.2141L816 83.2255L847.346 70.1205Z" fill="url(#paint4_linear)"/>
<g filter="url(#filter1_f)">
<path opacity="0.5" d="M826.696 901.296L807.592 946.992L803.235 924.757L781 920.4L826.696 901.296Z" fill="#49DDFF"/>
<path opacity="0.5" d="M121.721 508.52L108.041 541.241L104.921 525.32L88.9999 522.2L121.721 508.52Z" fill="#49DDFF"/>
</g>
<path opacity="0.7" d="M875.772 620.572L859.145 660.345L855.353 640.992L836 637.2L875.772 620.572Z" fill="#E8006F"/>
<path opacity="0.7" d="M464.66 109.339L452.678 137.999L449.946 124.053L436 121.321L464.66 109.339Z" fill="#E8006F"/>
</g>
<g opacity="0.25">
<g opacity="0.2" filter="url(#filter2_f)">
<path d="M858.963 824.554L848.108 850.517L845.633 837.884L833 835.408L858.963 824.554Z" fill="#E8006F"/>
<path d="M1234.96 730.554L1224.11 756.517L1221.63 743.884L1209 741.408L1234.96 730.554Z" fill="#E8006F"/>
<path d="M531.962 713.554L521.108 739.517L518.633 726.884L506 724.408L531.962 713.554Z" fill="#E8006F"/>
</g>
<path d="M697.346 902.121L684.241 933.467L681.253 918.214L666 915.226L697.346 902.121Z" fill="url(#paint5_linear)"/>
<path d="M1341.35 638.121L1328.24 669.467L1325.25 654.214L1310 651.226L1341.35 638.121Z" fill="url(#paint6_linear)"/>
<path d="M474.346 616.121L461.241 647.467L458.252 632.214L443 629.226L474.346 616.121Z" fill="url(#paint7_linear)"/>
<path opacity="0.7" d="M958.66 677.339L946.678 705.999L943.946 692.053L930 689.321L958.66 677.339Z" fill="#E8006F"/>
</g>
<g opacity="0.25">
<g opacity="0.2" filter="url(#filter3_f)">
<path d="M1331.96 177.554L1321.11 203.517L1318.63 190.884L1306 188.408L1331.96 177.554Z" fill="#E8006F"/>
</g>
<path d="M1497.35 366.121L1484.24 397.467L1481.25 382.214L1466 379.226L1497.35 366.121Z" fill="url(#paint8_linear)"/>
<path d="M1274.35 80.1205L1261.24 111.467L1258.25 96.2141L1243 93.2255L1274.35 80.1205Z" fill="url(#paint9_linear)"/>
<g filter="url(#filter4_f)">
<path opacity="0.5" d="M1415.72 540.52L1402.04 573.241L1398.92 557.32L1383 554.2L1415.72 540.52Z" fill="#49DDFF"/>
</g>
</g>
</g>
<defs>
<filter id="filter0_f" x="7" y="133" width="822.517" height="1153.52" filterUnits="userSpaceOnUse" color-interpolation-filters="sRGB">
<feFlood flood-opacity="0" result="BackgroundImageFix"/>
<feBlend mode="normal" in="SourceGraphic" in2="BackgroundImageFix" result="shape"/>
<feGaussianBlur stdDeviation="2.5" result="effect1_foregroundBlur"/>
</filter>
<filter id="filter1_f" x="79" y="489" width="770.992" height="951.992" filterUnits="userSpaceOnUse" color-interpolation-filters="sRGB">
<feFlood flood-opacity="0" result="BackgroundImageFix"/>
<feBlend mode="normal" in="SourceGraphic" in2="BackgroundImageFix" result="shape"/>
<feGaussianBlur stdDeviation="5" result="effect1_foregroundBlur"/>
</filter>
<filter id="filter2_f" x="501" y="701" width="822.517" height="1153.52" filterUnits="userSpaceOnUse" color-interpolation-filters="sRGB">
<feFlood flood-opacity="0" result="BackgroundImageFix"/>
<feBlend mode="normal" in="SourceGraphic" in2="BackgroundImageFix" result="shape"/>
<feGaussianBlur stdDeviation="2.5" result="effect1_foregroundBlur"/>
</filter>
<filter id="filter3_f" x="1301" y="165" width="822.517" height="1153.52" filterUnits="userSpaceOnUse" color-interpolation-filters="sRGB">
<feFlood flood-opacity="0" result="BackgroundImageFix"/>
<feBlend mode="normal" in="SourceGraphic" in2="BackgroundImageFix" result="shape"/>
<feGaussianBlur stdDeviation="2.5" result="effect1_foregroundBlur"/>
</filter>
<filter id="filter4_f" x="1373" y="521" width="770.992" height="951.992" filterUnits="userSpaceOnUse" color-interpolation-filters="sRGB">
<feFlood flood-opacity="0" result="BackgroundImageFix"/>
<feBlend mode="normal" in="SourceGraphic" in2="BackgroundImageFix" result="shape"/>
<feGaussianBlur stdDeviation="5" result="effect1_foregroundBlur"/>
</filter>
<radialGradient id="paint0_radial" cx="0" cy="0" r="1" gradientUnits="userSpaceOnUse" gradientTransform="translate(1503.2 875.7) rotate(-149.469) scale(1723.8 3066.94)">
<stop stop-color="#8000FF" stop-opacity="0.33"/>
<stop offset="0.359001" stop-opacity="0.16"/>
</radialGradient>
<linearGradient id="paint1_linear" x1="1734.11" y1="556.21" x2="830.586" y2="922.592" gradientUnits="userSpaceOnUse">
<stop stop-color="#E8006F"/>
<stop offset="1" stop-color="#CD46FF"/>
</linearGradient>
<linearGradient id="paint2_linear" x1="1771.58" y1="-130.334" x2="440.038" y2="-623.628" gradientUnits="userSpaceOnUse">
<stop stop-color="#8505FF"/>
<stop offset="1" stop-color="#49DDFF"/>
</linearGradient>
<linearGradient id="paint3_linear" x1="203.346" y1="334.121" x2="181.121" y2="356.346" gradientUnits="userSpaceOnUse">
<stop stop-color="#BB6BD9"/>
<stop offset="0.713542" stop-color="#8000FF"/>
</linearGradient>
<linearGradient id="paint4_linear" x1="847.346" y1="70.1205" x2="825.121" y2="92.3461" gradientUnits="userSpaceOnUse">
<stop stop-color="#BB6BD9"/>
<stop offset="0.713542" stop-color="#8000FF"/>
</linearGradient>
<linearGradient id="paint5_linear" x1="697.346" y1="902.121" x2="675.121" y2="924.346" gradientUnits="userSpaceOnUse">
<stop stop-color="#BB6BD9"/>
<stop offset="0.713542" stop-color="#8000FF"/>
</linearGradient>
<linearGradient id="paint6_linear" x1="1341.35" y1="638.121" x2="1319.12" y2="660.346" gradientUnits="userSpaceOnUse">
<stop stop-color="#BB6BD9"/>
<stop offset="0.713542" stop-color="#8000FF"/>
</linearGradient>
<linearGradient id="paint7_linear" x1="474.346" y1="616.121" x2="452.12" y2="638.346" gradientUnits="userSpaceOnUse">
<stop stop-color="#BB6BD9"/>
<stop offset="0.713542" stop-color="#8000FF"/>
</linearGradient>
<linearGradient id="paint8_linear" x1="1497.35" y1="366.121" x2="1475.12" y2="388.346" gradientUnits="userSpaceOnUse">
<stop stop-color="#BB6BD9"/>
<stop offset="0.713542" stop-color="#8000FF"/>
</linearGradient>
<linearGradient id="paint9_linear" x1="1274.35" y1="80.1205" x2="1252.12" y2="102.346" gradientUnits="userSpaceOnUse">
<stop stop-color="#BB6BD9"/>
<stop offset="0.713542" stop-color="#8000FF"/>
</linearGradient>
<clipPath id="clip0">
<rect width="1600" height="900" fill="white"/>
</clipPath>
</defs>
</svg>
