<?xml version="1.0" encoding="UTF-8"?>
<svg width="528px" height="240px" viewBox="0 0 528 240" version="1.1" xmlns="http://www.w3.org/2000/svg" xmlns:xlink="http://www.w3.org/1999/xlink">
    <!-- Generator: Sketch 62 (91390) - https://sketch.com -->
    <title>UXRC_logo_light</title>
    <desc>Created with Sketch.</desc>
    <defs>
        <polygon id="path-1" points="0 17.199 149.4038 17.199 149.4038 208 0 208"></polygon>
    </defs>
    <g id="UXRC_logo_light" stroke="none" stroke-width="1" fill="none" fill-rule="evenodd">
        <g id="Group-22" transform="translate(1.000000, 1.000000)">
            <g id="Group-3" transform="translate(0.000000, 31.553080)">
                <mask id="mask-2" fill="white">
                    <use xlink:href="#path-1"></use>
                </mask>
                <g id="Clip-2"></g>
                <path d="M149.3518,123.409 C149.3518,123.097 149.4038,122.811 149.4038,122.499 L149.3518,83.681 L111.9898,30.251 C111.7558,24.063 116.7998,18.057 122.8838,17.199 L107.6998,19.357 C101.3038,20.267 96.2598,26.273 96.5718,32.773 L96.5458,130.949 C96.5458,130.949 95.1418,153.829 74.7318,156.741 C54.3218,159.653 52.6838,137.189 52.6838,137.189 L52.7098,38.987 C52.3978,32.513 47.7178,27.885 41.3218,28.795 L11.1618,33.085 C4.7398,33.995 -0.3042,40.001 0.0078,46.501 L0.1898,143.715 C0.3198,218.907 74.7838,207.363 74.7838,207.363 C74.7838,207.363 94.4658,204.737 113.6018,192.101 C112.8218,190.619 112.2498,188.981 112.2498,187.109 L149.3518,123.409 Z" id="Fill-1" fill="#FF3E16" mask="url(#mask-2)"></path>
            </g>
            <path d="M236.8496,200.65188 L236.7716,143.39988 L223.4596,124.54988 L236.7196,101.79988 L236.6676,44.39188 C236.3556,37.89188 241.4256,31.88588 247.8216,30.97588 L225.2276,34.19988 C220.9636,34.79788 217.4536,38.41188 215.2176,42.46788 L192.8056,81.38988 L170.1596,48.88988 C167.5076,45.50988 164.3356,42.85788 160.0716,43.48188 L137.8416,46.62788 C144.2376,45.71788 148.9436,50.31988 149.2556,56.81988 L149.3596,115.24188 L161.9436,133.31188 L149.3596,154.96988 C149.0996,190.97988 131.6016,211.75388 113.6096,223.66188 C115.4296,227.06788 119.0696,229.19988 123.3336,228.60188 L160.4616,223.32388 C164.7516,222.69988 167.9756,219.13788 170.4716,215.05588 L192.9616,176.41988 L215.5556,208.65988 C217.8956,212.03988 221.3796,214.66588 225.6176,214.04188 L248.2116,210.84388 C241.8156,211.75388 236.8236,207.15188 236.8496,200.65188" id="Fill-4" fill="#FFB600"></path>
            <path d="M112.0028,61.80408 L149.3648,115.23408 L149.2608,56.81208 C148.9488,50.33808 144.2428,45.71008 137.8468,46.62008 L122.8968,48.75208 C116.8128,49.61008 111.7428,55.61608 112.0028,61.80408" id="Fill-6" fill="#FF7500"></path>
            <path d="M149.3518,154.96208 L112.2498,218.66208 C112.2498,220.53408 112.8218,222.17208 113.6018,223.65408 C131.5938,211.77208 149.0918,190.97208 149.3518,154.96208" id="Fill-8" fill="#FF3E16"></path>
            <path d="M323.9392,87.89248 C324.0432,99.38448 317.7252,105.23448 309.7952,106.37848 L289.3852,109.29048 L289.2812,75.72448 L309.6912,72.83848 C317.6212,71.69448 324.1472,76.06248 323.9392,87.89248 M351.0312,140.36048 L350.2512,139.45048 C350.3812,139.34648 350.4852,139.21648 350.6152,139.11248 C346.8972,129.46648 344.5832,118.88448 344.5052,107.34048 C344.5572,83.34248 353.4492,60.56648 367.8792,42.08048 C347.9632,17.14648 309.0412,22.26848 309.0412,22.26848 L262.3972,28.89848 C268.4812,28.04048 273.1612,32.66848 273.4472,38.83048 L236.7352,101.80248 L236.7612,143.40248 L273.6552,195.71448 C273.6032,201.92848 268.8972,207.88248 262.7872,208.76648 L278.3612,206.53048 C284.7572,205.62048 289.5152,199.66648 289.5412,193.16648 L289.4632,159.91248 L294.3252,159.21048 L327.0072,194.64848 C328.9572,197.48248 332.5972,198.83448 336.5492,198.26248 L374.3012,192.90648 C380.7232,191.99648 385.4292,186.01648 385.4552,179.51648 L384.6232,178.55448 C369.4132,170.26048 357.7652,156.94848 351.0312,140.36048" id="Fill-10" fill="#F737F2"></path>
            <path d="M236.6702,44.38408 L236.7222,101.79208 L273.4342,38.84608 C273.1482,32.65808 268.4942,28.05608 262.3842,28.91408 L247.8242,30.96808 C241.4282,31.90408 236.3582,37.88408 236.6702,44.38408" id="Fill-12" fill="#FF3E16"></path>
            <path d="M273.6656,195.71188 L236.7716,143.39988 L236.8496,200.65188 C236.8236,207.15188 241.8156,211.75388 248.2116,210.84388 L262.7976,208.76388 C268.8816,207.87988 273.6136,201.92588 273.6656,195.71188" id="Fill-14" fill="#FF3E16"></path>
            <path d="M437.2576,51.57048 C450.6736,49.67248 463.4136,56.25048 470.4336,68.60048 C472.1756,72.11048 475.9196,74.34648 480.1836,73.74848 L515.8036,68.67848 C521.9136,67.82048 527.0096,62.12648 527.0356,55.91248 C514.5296,18.21248 479.5336,-5.08352 437.2056,0.94848 C409.0476,4.95248 384.6856,20.60448 367.8896,42.08048 C374.7536,50.68648 379.4076,62.80248 379.3816,80.01448 C379.5376,109.23848 365.9136,127.56848 350.6256,139.11248 C350.7816,139.50248 350.8596,139.94448 351.0416,140.36048 L384.6336,178.55448 C399.5316,186.69248 417.6796,190.15048 437.6216,187.31648 C479.9496,181.28448 514.9716,148.03048 527.1396,106.84648 C526.8796,100.65848 521.9396,96.39448 515.8296,97.25248 L480.2096,102.32248 C475.9456,102.94648 472.0716,106.27448 470.4596,110.22648 C463.4916,124.60448 450.9336,134.77048 437.5696,136.66848 C416.5356,139.65848 399.2716,123.14848 399.3236,99.54048 C399.4016,75.93248 416.2236,54.56048 437.2576,51.57048" id="Fill-16" fill="#4616F2"></path>
            <path d="M384.6232,178.54928 L351.0312,140.35528 C357.7652,156.94328 369.4132,170.25528 384.6232,178.54928" id="Fill-18" fill="#4616F2"></path>
            <path d="M350.623,139.11768 C365.911,127.57368 379.535,109.24368 379.379,80.01968 C379.405,62.80768 374.751,50.69168 367.887,42.08568 C353.431,60.57168 344.565,83.32168 344.513,107.31968 C344.591,118.88968 346.879,129.47168 350.623,139.11768" id="Fill-20" fill="#8A37F2"></path>
        </g>
    </g>
</svg>