<?xml version="1.0" encoding="UTF-8"?>
<svg width="237px" height="134px" viewBox="0 0 237 134" version="1.1" xmlns="http://www.w3.org/2000/svg" xmlns:xlink="http://www.w3.org/1999/xlink">
    <!-- Generator: Sketch 49.3 (51167) - http://www.bohemiancoding.com/sketch -->
    <title>360Pixels-Logotype</title>
    <desc>Created with Sketch.</desc>
    <defs>
        <polygon id="path-1" points="0.3474 0.8533 14.1694 0.8533 14.1694 14 0.3474 14"></polygon>
        <polygon id="path-3" points="0 133.515 236.617 133.515 236.617 -2.84217094e-14 0 -2.84217094e-14"></polygon>
    </defs>
    <g id="Page-1" stroke="none" stroke-width="1" fill="none" fill-rule="evenodd">
        <g id="Artboard">
            <g id="360Pixels-Logotype">
                <path d="M13.7364,130.3472 C12.5394,132.2182 10.3684,133.4662 7.8984,133.4662 C4.1064,133.4662 1.0384,130.5472 1.0384,126.9302 C1.0384,123.2862 4.1064,120.3422 7.8984,120.3422 C10.2944,120.3422 12.4154,121.5152 13.6364,123.3122 L12.5894,123.8852 C11.5664,122.4632 9.8444,121.5402 7.8984,121.5402 C4.7804,121.5402 2.2354,123.9602 2.2354,126.9302 C2.2354,129.8732 4.7804,132.2682 7.8984,132.2682 C9.8954,132.2682 11.6404,131.2952 12.6384,129.8482 L13.7364,130.3472 Z" id="Fill-1" fill="#231F20"></path>
                <path d="M24.5069,122.1402 C24.0829,121.8902 23.2839,121.6642 22.7609,121.6642 C19.7909,121.6642 17.8969,123.4362 17.8969,128.0512 L17.8969,133.1172 L16.7229,133.1172 L16.7229,120.7672 L17.5969,120.7672 L17.8969,123.1872 L17.9449,123.1872 C18.8939,121.3662 20.8149,120.4922 22.7609,120.4922 C23.4589,120.4922 24.2069,120.6922 24.9819,121.0412 L24.5069,122.1402 Z" id="Fill-3" fill="#231F20"></path>
                <g id="Group-7" transform="translate(26.000000, 119.515000)">
                    <mask id="mask-2" fill="white">
                        <use xlink:href="#path-1"></use>
                    </mask>
                    <g id="Clip-6"></g>
                    <path d="M1.5704,6.7903 L12.9724,6.7903 C12.6734,3.9953 10.3524,2.0253 7.2834,2.0253 C4.1904,2.0253 1.8704,3.9953 1.5704,6.7903 Z M13.1724,10.8323 C11.9494,12.7273 9.7794,14.0003 7.2834,14.0003 C3.4664,14.0003 0.3474,11.2303 0.3474,7.4153 C0.3474,3.7973 3.2174,0.8533 7.2834,0.8533 C11.4504,0.8533 14.1694,3.7233 14.1694,7.4153 L14.1694,7.9883 L1.5704,7.9883 C1.8454,10.8323 4.1904,12.8023 7.2834,12.8023 C9.4044,12.8023 11.1504,11.8553 12.1484,10.3583 L13.1724,10.8323 Z" id="Fill-5" fill="#231F20" mask="url(#mask-2)"></path>
                </g>
                <path d="M49.5176,132.2935 C52.6366,132.2935 55.3306,129.8975 55.3306,126.9305 C55.3306,123.9605 52.6366,121.5645 49.5176,121.5645 C46.3986,121.5645 43.8546,123.9605 43.8546,126.9305 C43.8546,129.8975 46.3986,132.2935 49.5176,132.2935 M49.5176,120.3685 C51.8376,120.3685 53.9096,121.4665 55.1306,123.1605 L55.1806,123.1605 L55.3796,120.7675 L56.3786,120.7675 L56.3786,133.1165 L55.4806,133.1165 L55.1806,130.6715 L55.1566,130.6715 C53.9096,132.3675 51.8626,133.4915 49.5176,133.4915 C45.7256,133.4915 42.6566,130.5705 42.6566,126.9305 C42.6566,123.3125 45.7256,120.3685 49.5176,120.3685" id="Fill-8" fill="#231F20"></path>
                <path d="M65.3272,133.2164 C64.9032,133.3404 64.4302,133.4144 64.0552,133.4144 C62.0342,133.4144 60.6632,132.3174 60.6632,129.8224 L60.6632,121.9394 L58.4922,121.9394 L58.4922,120.7674 L60.6632,120.7674 L60.6632,116.5504 L61.8592,116.3014 L61.8852,120.7674 L65.2532,120.7674 L65.2532,121.9394 L61.8852,121.9394 L61.8852,129.7224 C61.8852,131.5944 63.0082,132.2684 64.2552,132.2684 C64.5792,132.2684 64.9542,132.1674 65.3272,132.0434 L65.3272,133.2164 Z" id="Fill-10" fill="#231F20"></path>
                <mask id="mask-4" fill="white">
                    <use xlink:href="#path-3"></use>
                </mask>
                <g id="Clip-13"></g>
                <path d="M67.819,133.117 L69.015,133.117 L69.015,120.767 L67.819,120.767 L67.819,133.117 Z M67.694,117.424 L69.116,117.424 L69.116,115.678 L67.694,115.678 L67.694,117.424 Z" id="Fill-12" fill="#231F20" mask="url(#mask-4)"></path>
                <polygon id="Fill-14" fill="#231F20" mask="url(#mask-4)" points="83.5079 120.7672 77.8949 133.1172 76.5989 133.1172 70.9859 120.7672 72.4069 120.7672 75.4259 127.6272 77.1719 131.8952 77.2209 131.8952 79.0439 127.7272 82.1859 120.7672"></polygon>
                <path d="M86.0977,126.3053 L97.4987,126.3053 C97.1987,123.5103 94.8787,121.5403 91.8117,121.5403 C88.7157,121.5403 86.3967,123.5103 86.0977,126.3053 Z M97.6997,130.3473 C96.4757,132.2423 94.3057,133.5153 91.8117,133.5153 C87.9937,133.5153 84.8747,130.7453 84.8747,126.9303 C84.8747,123.3123 87.7437,120.3683 91.8117,120.3683 C95.9767,120.3683 98.6977,123.2383 98.6977,126.9303 L98.6977,127.5033 L86.0977,127.5033 C86.3707,130.3473 88.7157,132.3173 91.8117,132.3173 C93.9307,132.3173 95.6777,131.3703 96.6757,129.8733 L97.6997,130.3473 Z" id="Fill-15" fill="#231F20" mask="url(#mask-4)"></path>
                <path d="M112.0616,129.9488 C112.0616,132.4178 109.7406,133.4918 106.6466,133.4918 C104.2526,133.4918 101.5826,132.6178 100.9336,131.6688 L101.6586,130.7218 C102.3556,131.4698 104.3766,132.2938 106.6466,132.2938 C109.8666,132.2938 110.8636,131.2208 110.8636,130.0718 C110.8636,128.8748 110.4886,128.2768 107.8706,127.6028 L105.3256,127.0048 C102.0056,126.2308 101.3586,125.4818 101.3586,123.7368 C101.3586,121.7158 103.4536,120.3918 106.6466,120.3918 C108.9676,120.3918 110.8376,121.1908 111.6376,122.0138 L110.8636,122.9628 C109.7406,122.0138 108.0686,121.5908 106.6466,121.5908 C104.1266,121.5908 102.6306,122.4128 102.6306,123.7108 C102.6306,124.9588 103.4536,125.3828 105.6496,125.9068 L108.1206,126.5058 C111.5116,127.2778 112.0616,128.2768 112.0616,129.9488" id="Fill-16" fill="#231F20" mask="url(#mask-4)"></path>
                <path d="M122.6036,126.9537 L122.6036,120.7667 L123.7766,120.7667 L123.8016,126.9537 C123.8016,130.0987 125.5226,132.3167 129.1166,132.3167 C132.3096,132.3167 134.5546,130.3477 134.5546,126.9537 L134.5546,120.7667 L135.7526,120.7667 L135.7526,133.1167 L134.8786,133.1167 L134.5546,130.6967 L134.5056,130.6967 C133.2826,132.3927 131.5616,133.4917 129.1166,133.4917 C124.6996,133.4917 122.6036,130.9207 122.6036,126.9537" id="Fill-17" fill="#231F20" mask="url(#mask-4)"></path>
                <path d="M152.9337,126.9303 L152.9337,133.1173 L151.7607,133.1173 L151.7357,126.9303 C151.7357,123.7853 149.6647,121.5643 146.0737,121.5643 C142.6297,121.5643 140.4347,123.6363 140.4347,126.9303 L140.4347,133.1173 L139.2367,133.1173 L139.2367,120.7673 L140.1107,120.7673 L140.4347,123.1873 L140.4837,123.1873 C141.7327,121.4903 143.7777,120.3923 146.0737,120.3923 C150.3897,120.3923 152.9337,123.2383 152.9337,126.9303" id="Fill-18" fill="#231F20" mask="url(#mask-4)"></path>
                <path d="M168.9415,126.9303 C168.9415,123.9863 166.3955,121.5643 163.2795,121.5643 C160.1605,121.5643 157.4655,123.9863 157.4655,126.9303 C157.4655,129.8973 160.1605,132.2933 163.2795,132.2933 C166.3955,132.2933 168.9415,129.8973 168.9415,126.9303 M170.1395,126.9303 C170.1395,130.5713 167.0695,133.4923 163.2795,133.4923 C160.9325,133.4923 158.8875,132.3673 157.6405,130.6713 L157.6155,130.6713 L157.3165,133.1173 L156.4175,133.1173 L156.4175,115.6783 L157.6155,115.6783 L157.6155,123.1873 L157.6645,123.1873 C158.8875,121.4903 160.9585,120.3683 163.2795,120.3683 C167.0695,120.3683 170.1395,123.3123 170.1395,126.9303" id="Fill-19" fill="#231F20" mask="url(#mask-4)"></path>
                <path d="M185.1514,126.9303 C185.1514,123.9863 182.6314,121.5643 179.4894,121.5643 C176.3714,121.5643 173.8254,123.9863 173.8254,126.9303 C173.8254,129.8973 176.3714,132.2933 179.4894,132.2933 C182.6314,132.2933 185.1514,129.8973 185.1514,126.9303 M186.3494,126.9303 C186.3494,130.5713 183.2804,133.4923 179.4894,133.4923 C175.6974,133.4923 172.6284,130.5713 172.6284,126.9303 C172.6284,123.3123 175.6974,120.3683 179.4894,120.3683 C183.2804,120.3683 186.3494,123.3123 186.3494,126.9303" id="Fill-20" fill="#231F20" mask="url(#mask-4)"></path>
                <polygon id="Fill-21" fill="#231F20" mask="url(#mask-4)" points="198.2413 133.1168 193.7263 127.5528 193.7013 127.5528 189.2113 133.1168 187.7153 133.1168 192.9523 126.7298 192.9523 126.7038 188.1623 120.7668 189.6093 120.7668 193.6773 125.8558 193.7263 125.8558 197.8433 120.7668 199.2903 120.7668 194.5003 126.7038 194.5003 126.7298 199.7633 133.1168"></polygon>
                <path d="M202.3536,126.3053 L213.7546,126.3053 C213.4566,123.5103 211.1346,121.5403 208.0676,121.5403 C204.9716,121.5403 202.6526,123.5103 202.3536,126.3053 Z M213.9556,130.3473 C212.7316,132.2423 210.5616,133.5153 208.0676,133.5153 C204.2496,133.5153 201.1296,130.7453 201.1296,126.9303 C201.1296,123.3123 203.9996,120.3683 208.0676,120.3683 C212.2326,120.3683 214.9526,123.2383 214.9526,126.9303 L214.9526,127.5033 L202.3536,127.5033 C202.6266,130.3473 204.9716,132.3173 208.0676,132.3173 C210.1866,132.3173 211.9336,131.3703 212.9316,129.8733 L213.9556,130.3473 Z" id="Fill-22" fill="#231F20" mask="url(#mask-4)"></path>
                <path d="M230.1124,126.9303 C230.1124,123.9863 227.4184,121.5643 224.3004,121.5643 C221.1824,121.5643 218.6364,123.9863 218.6364,126.9303 C218.6364,129.8973 221.1824,132.2933 224.3004,132.2933 C227.4184,132.2933 230.1124,129.8973 230.1124,126.9303 M229.9144,123.1873 L229.9634,123.1873 L229.9634,115.6783 L231.1614,115.6783 L231.1614,133.1173 L230.2634,133.1173 L229.9634,130.6713 L229.9374,130.6713 C228.6904,132.3673 226.6454,133.4923 224.3004,133.4923 C220.5084,133.4923 217.4384,130.5713 217.4384,126.9303 C217.4384,123.3123 220.5084,120.3683 224.3004,120.3683 C226.6204,120.3683 228.6904,121.4903 229.9144,123.1873" id="Fill-23" fill="#231F20" mask="url(#mask-4)"></path>
                <polygon id="Fill-24" fill="#231F20" mask="url(#mask-4)" points="234.421 133.117 236.617 133.117 236.617 130.946 234.421 130.946"></polygon>
                <path d="M33.0421,34.192 C33.0421,44.463 27.0281,49.192 12.7031,49.192 C7.7031,49.192 2.9731,48.382 0.0001,47.367 L1.0141,44.191 C4.1891,45.408 9.1221,46.152 12.7031,46.152 C25.1371,46.152 29.8671,42.165 29.8671,34.192 C29.8671,27.569 26.5561,23.582 12.4331,22.164 L12.0281,19.596 L26.5561,4.257 L26.5561,3.988 L2.0271,3.988 L2.0271,0.946 L31.0161,0.946 L30.9481,3.92 L15.9461,19.529 L16.0151,19.732 L16.1491,19.732 C29.1231,21.15 33.0421,26.421 33.0421,34.192" id="Fill-25" fill="#231F20" mask="url(#mask-4)"></path>
                <path d="M69.6641,33.2457 C69.6641,26.2867 64.8671,21.1497 56.7571,21.1497 C51.0141,21.1497 43.3781,24.3257 43.3781,33.7197 C43.3781,41.0837 48.5151,46.0167 56.9601,46.0167 C65.6771,46.0167 69.6641,40.1387 69.6641,33.2457 M73.4481,33.2457 C73.4481,41.8277 67.1631,49.2607 56.6901,49.2607 C46.0811,49.2607 38.6481,43.1787 38.6481,25.5427 C38.6481,4.7977 48.9191,-0.0003 58.5141,-0.0003 C65.0011,-0.0003 68.9881,2.0267 70.2051,2.7707 L68.5161,5.6087 C66.4211,4.5277 62.8391,3.1767 58.2441,3.1767 C47.9061,3.1767 42.0271,9.8657 42.0271,24.0567 C42.0271,25.2057 42.0951,26.8927 42.1621,27.4337 L42.2971,27.4337 C43.2441,24.6637 46.4201,17.9747 57.4331,17.9747 C66.8261,17.9747 73.4481,24.1897 73.4481,33.2457" id="Fill-26" fill="#231F20" mask="url(#mask-4)"></path>
                <path d="M82.2979,24.5289 C82.2979,36.3539 88.6489,46.1519 99.4599,46.1519 C110.0689,46.1519 116.4209,36.6909 116.4209,24.7989 C116.4209,12.9739 110.0689,3.2439 99.3249,3.2439 C88.6489,3.2439 82.2979,12.6359 82.2979,24.5289 M99.3249,49.3949 C86.1499,49.3949 79.0539,38.5839 79.0539,24.8669 C79.0539,10.6759 86.4859,-0.0001 99.4599,-0.0001 C112.5689,-0.0001 119.6649,10.8119 119.6649,24.4619 C119.6649,38.7179 112.2309,49.3949 99.3249,49.3949" id="Fill-27" fill="#231F20" mask="url(#mask-4)"></path>
                <path d="M35.2852,74.3238 C35.2852,69.5788 32.6022,67.2408 27.5142,67.2408 L10.8712,67.2408 L10.8712,81.2698 L27.5142,81.2698 C32.3272,81.2698 35.2852,79.3448 35.2852,74.3238 Z M28.4072,58.4378 C38.3102,58.4378 45.1872,64.4908 45.1872,74.3238 C45.1872,84.0208 38.3802,90.0038 28.4072,90.0038 L10.8712,90.0038 L10.8712,106.5088 L1.0382,106.5088 L1.0382,58.4378 L28.4072,58.4378 Z" id="Fill-28" fill="#231F20" mask="url(#mask-4)"></path>
                <path d="M50.669,106.508 L60.571,106.508 L60.571,72.467 L50.669,72.467 L50.669,106.508 Z M50.669,67.722 L60.571,67.722 L60.571,58.438 L50.669,58.438 L50.669,67.722 Z" id="Fill-29" fill="#231F20" mask="url(#mask-4)"></path>
                <polygon id="Fill-30" fill="#231F20" mask="url(#mask-4)" points="86.6104 95.5054 86.4044 95.5054 78.2894 106.5084 66.1854 106.5084 79.8704 89.2474 79.8704 89.0414 66.7354 72.4674 78.7704 72.4674 86.4044 82.7144 86.6104 82.7144 94.2444 72.4674 106.2784 72.4674 93.0744 89.0414 93.0744 89.2474 106.7594 106.5084 94.7244 106.5084"></polygon>
                <path d="M134.4053,86.4283 C133.4423,82.9203 130.6233,80.1693 125.7413,80.1693 C121.2023,80.1693 118.1763,82.9203 117.0753,86.4283 L134.4053,86.4283 Z M144.4463,92.6163 L117.0753,92.6163 C118.1073,96.3993 121.0643,98.8063 125.7413,98.8063 C129.0413,98.8063 131.6553,97.3623 133.2363,94.9553 L141.8333,99.0813 C138.4633,104.1703 132.5493,107.6093 125.7413,107.6093 C115.2883,107.6093 106.7593,99.4933 106.7593,89.5223 C106.7593,79.4823 115.2883,71.3673 125.7413,71.3673 C136.8133,71.3673 144.4463,79.4123 144.4463,90.1413 L144.4463,92.6163 Z" id="Fill-31" fill="#231F20" mask="url(#mask-4)"></path>
                <polygon id="Fill-32" fill="#231F20" mask="url(#mask-4)" points="150.052 106.508 159.886 106.508 159.886 58.438 150.052 58.438"></polygon>
                <path d="M196.4092,96.1246 C196.4092,102.2456 191.8702,107.4026 180.1792,107.4026 C173.7832,107.4026 165.8752,103.8956 163.1922,100.0446 L170.6882,94.9556 C172.3392,96.8116 176.1212,98.6006 180.5922,98.6006 C185.5432,98.6006 186.5062,97.2936 186.5062,95.9186 C186.5062,94.5426 185.2672,93.7176 180.7282,92.8926 L177.4282,92.2726 C168.6252,90.6906 165.6682,87.5276 165.6682,82.4396 C165.6682,75.5626 172.2692,71.2286 181.0722,71.2286 C186.5742,71.2286 192.0762,73.4986 195.7902,77.9696 L188.2252,83.0586 C185.9562,80.7206 182.6542,79.8956 180.3862,79.8956 C176.7402,79.8956 175.5712,81.2006 175.5712,82.0956 C175.5712,83.2646 176.3272,84.3636 180.3862,85.2596 L183.9612,86.0836 C192.6272,87.9406 196.4092,90.3476 196.4092,96.1246" id="Fill-33" fill="#231F20" mask="url(#mask-4)"></path>
            </g>
        </g>
    </g>
</svg>