<?xml version="1.0" encoding="UTF-8" standalone="no"?>
<!-- Created with Inkscape (http://www.inkscape.org/) -->

<svg
   xmlns:dc="http://purl.org/dc/elements/1.1/"
   xmlns:cc="http://creativecommons.org/ns#"
   xmlns:rdf="http://www.w3.org/1999/02/22-rdf-syntax-ns#"
   xmlns:svg="http://www.w3.org/2000/svg"
   xmlns="http://www.w3.org/2000/svg"
   xmlns:sodipodi="http://sodipodi.sourceforge.net/DTD/sodipodi-0.dtd"
   xmlns:inkscape="http://www.inkscape.org/namespaces/inkscape"
   width="2000.0009"
   height="768.46222"
   viewBox="0 0 2000.0009 768.46222"
   id="svg3338"
   version="1.1"
   inkscape:version="0.91 r13725"
   sodipodi:docname="anc2015-1.svg">
  <defs
     id="defs3340" />
  <sodipodi:namedview
     id="base"
     pagecolor="#ffffff"
     bordercolor="#666666"
     borderopacity="1.0"
     inkscape:pageopacity="0.0"
     inkscape:pageshadow="2"
     inkscape:zoom="0.4469998"
     inkscape:cx="1000.0005"
     inkscape:cy="384.23115"
     inkscape:document-units="px"
     inkscape:current-layer="g3346"
     showgrid="false"
     showguides="false"
     fit-margin-top="0"
     fit-margin-left="0"
     fit-margin-right="0"
     fit-margin-bottom="0"
     inkscape:window-width="1024"
     inkscape:window-height="705"
     inkscape:window-x="-8"
     inkscape:window-y="-8"
     inkscape:window-maximized="1"
     units="px" />
  <metadata
     id="metadata3343">
    <rdf:RDF>
      <cc:Work
         rdf:about="">
        <dc:format>image/svg+xml</dc:format>
        <dc:type
           rdf:resource="http://purl.org/dc/dcmitype/StillImage" />
        <dc:title></dc:title>
      </cc:Work>
    </rdf:RDF>
  </metadata>
  <g
     inkscape:label="Layer 1"
     inkscape:groupmode="layer"
     id="layer1"
     transform="translate(2315.3226,294.51435)">
    <g
       id="g3346"
       transform="translate(-2315.3967,-637.79792)">
      <g
         id="g3347">
        <g
           transform="matrix(0.69122201,0,0,0.69122201,0.02288294,343.28357)"
           id="g7080">
          <g
             id="g3365">
            <path
               style="fill:#ab0202"
               d="m 430.2,558.7164 c -55.8525,-0.21621 -111.9282,-0.43209 -124.61265,-0.47973 L 282.5247,558.15 433.01235,496.46925 583.5,434.7885 l 0.0219,2.13075 c 0.012,1.17192 0.0674,3.27825 0.12285,4.68075 0.0555,1.4025 0.18384,5.925 0.28521,10.05 0.10137,4.125 0.25056,9.525 0.3315,12 0.081,2.475 0.41688,15.84 0.74652,29.7 0.32961,13.86 0.79941,32.6925 1.04403,41.85 0.24462,9.1575 0.44547,18.30375 0.44637,20.325 l 0.003,3.675 -27.375,-0.0453 c -15.05625,-0.0249 -73.0725,-0.22215 -128.925,-0.43833 z"
               id="path3350"
               inkscape:connector-curvature="0" />
            <path
               id="path3344"
               style="fill:#1a455a"
               d="m 514.13472,417.35916 c 7.37841,-9.53745 25.43028,-32.87688 40.11528,-51.86541 14.685,-18.98853 26.73723,-34.49169 26.78274,-34.45143 0.0926,0.0819 2.46069,97.29816 2.46471,101.18268 l 0.003,2.475 -41.39028,0 -41.39028,0 13.41528,-17.34084 z M 643.52148,245.45312 c 26.77655,0.006 34.54624,0.0955 34.61914,0.32032 0.156,0.48078 36.16247,313.22425 36.07227,313.31445 -0.0371,0.0371 -31.45318,0.11026 -69.81445,0.16406 -59.67357,0.0836 -350.85664,-0.73355 -359.06836,-1.00781 l -2.81836,-0.0937 129.72461,-156.30078 129.72656,-156.29883 68.02734,-0.0762 c 13.56842,-0.0151 24.60574,-0.0234 33.53125,-0.0215 z M 268.25,0 134.23047,402.07422 C 60.51991,623.21547 0.15006615,804.31914 0.07421875,804.52539 c -0.11028105,0.2999 82.14869925,0.375 410.66797125,0.375 l 410.80859,0 L 955.69922,402.44922 1089.8496,0 679.05078,0 268.25,0 Z m 1127.5078,245.64062 c 21.5604,-0.0219 31.9636,0.0444 32.1406,0.20118 0.1911,0.16918 20.2181,38.3782 44.5059,84.9082 24.2878,46.53 44.2654,84.71299 44.3945,84.85156 0.1291,0.13857 0.4473,-0.40065 0.7071,-1.19922 0.2599,-0.79857 12.7007,-39.04409 27.6464,-84.99023 14.9457,-45.94612 27.2375,-83.60239 27.3145,-83.67969 0.1599,-0.15982 118.127,-0.039 118.2871,0.1211 0.075,0.0748 -110.5136,308.91149 -112.0156,312.82226 -0.191,0.49752 -3.1122,0.52463 -55.5957,0.51563 l -55.3926,-0.0117 -43.4902,-85.08594 c -41.5641,-81.31935 -43.5038,-85.04776 -43.8399,-84.21484 -0.1934,0.47934 -13.7462,38.53531 -30.1152,84.57031 -16.369,46.035 -29.7826,83.72089 -29.8086,83.74609 -0.026,0.0252 -23.7378,0.26344 -52.6953,0.5293 -28.9575,0.26586 -55.6633,0.48347 -59.3457,0.48047 l -6.6953,-0.004 0.2129,-0.67578 c 0.1176,-0.37125 25.2227,-70.87578 55.789,-156.67578 l 55.5762,-156 57.1055,-0.15625 c 9.701,-0.0268 18.1276,-0.0455 25.3144,-0.0527 z M 1168.8496,0 1034.8301,402.07422 c -73.71056,221.14125 -134.08047,402.24492 -134.15627,402.45117 -0.11028,0.2999 82.15062,0.375 410.66997,0.375 l 410.8066,0 L 1856.3008,402.44922 1990.4492,0 1579.6504,0 1168.8496,0 Z M 2425.5,234.45508 c 13.9545,-0.006 17.7593,0.18233 28.1992,1.38476 35.3791,4.07482 65.9995,16.15264 88.6992,34.99024 13.6483,11.32628 23.9734,24.60862 31.1895,40.11914 1.5073,3.23988 4.1573,9.96215 4.3594,11.05859 0.088,0.47922 -8.5015,4.09237 -61.3965,25.82422 -57.4691,23.61108 -61.5144,25.22602 -61.6953,24.64258 -2.197,-7.08501 -3.8868,-10.77423 -6.8164,-14.86914 -9.3837,-13.11618 -25.0533,-20.93499 -45.7539,-22.83399 -4.8973,-0.44928 -16.4033,-0.19598 -21.4844,0.47266 -25.938,3.41331 -51.0286,15.33914 -69.0938,32.8418 -12.701,12.30549 -20.4699,25.47658 -23.5195,39.87109 -0.7148,3.37473 -0.8045,4.45576 -0.8145,9.79297 -0.01,4.57905 0.113,6.62296 0.5176,8.63086 1.143,5.673 3.3841,11.03775 6.7168,16.08789 2.5344,3.84051 8.3785,9.55404 12.6934,12.41016 4.1247,2.73018 10.3646,5.796 14.6992,7.2207 32.1817,10.57749 75.4185,0.0698 105.0254,-25.52344 3.6507,-3.15579 9.5798,-9.19019 12.0976,-12.3125 0.9695,-1.20219 1.8694,-2.14681 2,-2.09961 1.1776,0.42576 92.9495,48.74002 92.8965,48.90625 -0.2131,0.66627 -10.4252,11.18178 -15.2031,15.6543 -21.8181,20.42355 -45.5119,36.86104 -72.8809,50.55859 -39.2276,19.63248 -81.0993,30.89462 -122.7363,33.01368 -5.2718,0.26832 -18.3922,0.32373 -23.3984,0.0996 -29.1103,-1.30332 -55.6908,-7.65938 -78.1504,-18.68945 -38.2735,-18.79638 -62.3045,-50.14369 -67.6211,-88.20703 -3.6475,-26.11389 1.85,-54.58809 15.9863,-82.80078 12.8941,-25.73334 32.5748,-50.15888 57.8125,-71.74805 45.4594,-38.88764 104.7587,-65.10139 164.0723,-72.53125 13.0101,-1.62969 18.6265,-1.95884 33.5996,-1.96484 z M 2481.8574,0.00390625 2071.0508,0.00976563 1936.9785,402.08008 c -73.7392,221.13882 -134.132,402.23906 -134.207,402.44531 -0.1086,0.29989 82.1528,0.37409 410.6719,0.37109 l 410.8066,-0.002 134.0762,-402.07226 C 2832.0681,181.68262 2892.4612,0.58125 2892.5332,0.375 2892.6379,0.07511739 2810.3745,3.51483e-4 2481.8574,0.00390625 Z"
               inkscape:connector-curvature="0" />
          </g>
        </g>
        <path
           inkscape:connector-curvature="0"
           d="m 392.56786,1062.8489 0,-18.2483 18.24826,0 18.24826,0 0,18.2483 0,18.2482 -18.24826,0 -18.24826,0 0,-18.2482 z m 1544.88114,0.6221 0,-46.2428 5.1837,0 5.1836,0 0.053,41.4215 0.053,41.4215 26.0764,0.053 26.0763,0.053 0,4.7686 0,4.7687 -31.3123,0 -31.3124,0 0,-46.2427 z m -88.5455,0 0,-46.2428 33.386,0 33.3861,0 0,4.6657 0,4.6658 -28.2019,0 -28.2019,0 0,15.8635 0,15.8636 25.2988,0 25.2987,0 0,4.7694 0,4.7695 -25.2987,0 -25.2988,0 0,16.2782 0,16.2783 28.6166,0 28.6166,0 0,4.6658 0,4.6657 -33.8007,0 -33.8008,0 0,-46.2427 z m -104.5128,-0.01 0,-46.2465 4.913,0.056 4.9129,0.056 29.015,36.9112 c 15.9583,20.3012 29.0978,36.9424 29.1989,36.9804 0.1064,0.04 0.1839,-15.5201 0.1839,-36.9631 l 0,-37.0322 4.9768,0 4.9768,0 0,46.2427 0,46.2428 -4.1242,0 -4.1241,0 -29.8322,-37.8827 -29.8321,-37.8825 -0.053,37.8825 -0.053,37.8827 -5.0799,0 -5.0799,0 0,-46.2465 z m -104.5127,0 0,-46.2465 4.9096,0.056 4.9096,0.056 29.0467,36.951 29.0466,36.951 0.053,-37.0028 0.053,-37.0029 5.0799,0 5.08,0 0,46.2427 0,46.2428 -4.1296,0 -4.1295,0 -29.8268,-37.8758 -29.8267,-37.8757 -0.053,37.8757 -0.053,37.8758 -5.0799,0 -5.0799,0 0,-46.2465 z m -70.4004,-46.8532 -20.9298,46.297 c -11.5108,25.4633 -20.9664,46.4125 -21.0134,46.5535 -0.066,0.2011 1.083,0.244 5.2396,0.2012 l 5.3245,-0.055 5.442,-12.1315 5.4407,-12.1301 25.2634,0 25.2633,0 5.3988,12.1828 5.4002,12.1828 5.5582,0 c 3.0568,0 5.5567,-0.037 5.5567,-0.081 0,-0.044 -9.4523,-20.9704 -21.0053,-46.5022 l -21.0053,-46.4212 -4.9669,-0.047 -4.9667,-0.049 z m 4.8507,12.2327 c 0.099,0 20.3192,45.2514 20.8716,46.7034 0.131,0.3442 -0.952,0.3632 -20.954,0.3632 -20.002,0 -21.0848,-0.019 -20.954,-0.3632 0.5461,-1.4359 20.9377,-46.7076 21.0364,-46.7034 z m -139.5359,34.6243 0,-46.2428 5.1842,0 5.1841,0 0,20.5293 0,20.5293 26.7503,0 26.7503,0 0,-20.5293 0,-20.5293 5.1842,0 5.1841,0 0,46.2428 0,46.2427 -5.1841,0 -5.1842,0 0,-20.8403 0,-20.8404 -26.7503,0 -26.7503,0 0,20.8404 0,20.8403 -5.1841,0 -5.1842,0 0,-46.2427 z m -454.54759,0 0,-46.2428 33.48969,0 33.4897,0 0,4.665 0,4.6651 -28.2537,0.053 -28.25367,0.053 -0.0532,15.8117 -0.0532,15.8117 25.29997,0 25.3001,0 0,4.7694 0,4.7694 -25.3,0 -25.30007,0 0.0532,16.2265 0.0532,16.2264 28.56477,0.053 28.5647,0.053 0,4.665 0,4.665 -33.8007,0 -33.80079,0 0,-46.2427 z m -104.51277,0 0,-46.2428 4.92496,0.01 4.92496,0.01 28.92764,36.8182 c 15.9102,20.25 29.04432,36.9152 29.18685,37.0338 0.20723,0.1723 0.25921,-7.2158 0.25921,-36.8248 l 0,-37.0403 4.9768,0 4.97679,0 0,46.2427 0,46.2428 -4.09549,0 -4.09549,0 -29.63904,-37.6416 c -16.30144,-20.7029 -29.76209,-37.7438 -29.91264,-37.8687 -0.22637,-0.1879 -0.27358,6.3071 -0.27358,37.6427 l 0,37.8698 -5.08048,0 -5.08049,0 0,-46.2427 z m 202.64386,0.464 c -9.0414,-25.5176 -16.4367,-46.4657 -16.4338,-46.5512 0,-0.086 2.5159,-0.1556 5.5846,-0.1556 l 5.5794,0 0.3068,0.8813 c 0.5273,1.5146 24.8382,72.3225 25.4979,74.2653 0.4007,1.1799 0.6816,1.7392 0.7811,1.5552 0.085,-0.1579 4.6538,-14.0045 10.1517,-30.7701 5.4979,-16.7656 11.1591,-34.0055 12.5804,-38.311 l 2.5842,-7.828 4.2999,0 4.2998,0 12.6299,38.479 c 6.9464,21.1635 12.6818,38.5105 12.7453,38.549 0.064,0.039 6.0409,-17.2286 13.2832,-38.3712 l 13.1678,-38.4412 5.4573,0 5.4573,0 -0.1428,0.4501 c -0.079,0.2476 -7.4918,21.1735 -16.474,46.502 l -16.3312,46.0518 -4.4493,0.056 -4.4493,0.056 -12.6151,-37.3392 c -6.9383,-20.5365 -12.6795,-37.379 -12.7583,-37.4276 -0.079,-0.048 -5.8636,16.7521 -12.8551,37.3351 l -12.712,37.4238 -4.3734,0 -4.3733,0 -16.439,-46.3957 z m -373.7213,-0.2567 0,-46.6574 14.06464,0 14.06464,0 34.81028,31.2086 c 19.14561,17.1648 34.88549,31.2087 34.97756,31.2087 0.092,0 0.16728,-14.0439 0.16728,-31.2087 l 0,-31.2086 6.8431,0 6.8431,0 0,46.6574 0,46.6575 -16.34229,0 -16.34222,0 -32.51791,-29.8608 c -17.88482,-16.4234 -32.59983,-29.8608 -32.69992,-29.8608 -0.10368,0 -0.18207,12.8596 -0.18207,29.8608 l 0,29.8608 -6.84309,0 -6.8431,0 0,-46.6575 z m -128.98149,-46.658 0,46.671 0,46.671 37.89571,-0.089 c 25.18411,-0.059 39.0092,-0.1683 41.21411,-0.324 15.42857,-1.0898 24.21255,-2.8427 31.39795,-6.2656 9.15598,-4.3616 13.40181,-11.3665 12.46492,-20.5665 -0.55194,-5.4204 -2.49697,-9.4617 -6.38163,-13.2574 -5.53897,-5.4122 -14.3556,-8.595 -24.97984,-9.0183 -1.79225,-0.072 -3.21839,-0.1961 -3.16856,-0.2768 0.0498,-0.081 0.89629,-0.2117 1.88062,-0.2916 2.79153,-0.2265 7.98444,-1.0914 10.71799,-1.7848 12.13752,-3.0785 18.22952,-9.8193 17.70585,-19.5904 -0.19852,-3.7036 -1.20321,-6.595 -3.21449,-9.2519 -5.02319,-6.6354 -16.0367,-10.4582 -34.24519,-11.8858 -7.98673,-0.6261 -15.31429,-0.7398 -48.16143,-0.7398 l -33.12601,0 z m 52.99189,8.3311 c 4.03098,0.045 7.02923,0.2993 10.14557,0.8276 11.07099,1.8767 16.69393,6.8354 16.75269,14.7736 0.0397,5.3566 -2.61165,9.2942 -8.03816,11.9343 -4.69022,2.2819 -10.32951,3.4673 -18.76695,3.9448 l 0,0 c -1.9959,0.113 -6.54501,0.2079 -10.10912,0.2079 l -6.48021,0 0,-12.8186 c 0,-8.258 0.0802,-13.2559 0.22411,-14.0486 0.30116,-1.6589 1.03514,-2.8624 2.14252,-3.5114 1.63637,-0.959 3.23146,-1.1714 9.71221,-1.2893 1.61592,-0.029 3.07368,-0.038 4.41734,-0.023 z m -16.51103,42.6236 9.70141,0.1201 c 10.05114,0.1246 13.07243,0.2914 17.99742,0.9923 8.38296,1.1931 14.7192,3.6943 18.29308,7.2201 5.69153,5.615 5.52177,14.9044 -0.35911,19.6498 -4.69909,3.7918 -11.97162,5.6073 -24.36287,6.0833 l 0,0 c -5.61538,0.2155 -6.7452,0.2139 -12.54595,-0.014 -5.58202,-0.2189 -7.20194,-0.7878 -8.16371,-2.8675 -0.4364,-0.9436 -0.44204,-1.1462 -0.50087,-16.0709 l -0.0594,-15.1151 z m -468.0113,-50.9547 0,46.6575 0,46.6562 34.16419,0 c 33.79032,0 41.20018,-0.1112 49.09296,-0.7318 19.90454,-1.5649 31.51072,-5.8899 36.69957,-13.6786 1.22975,-1.8459 1.94247,-3.4321 2.51783,-5.6 0.30868,-1.1631 0.38163,-2.1725 0.37127,-5.0802 -0.0115,-3.2146 -0.0731,-3.8541 -0.54272,-5.6014 -0.29156,-1.0847 -0.81722,-2.607 -1.16914,-3.3831 -4.11936,-9.0851 -15.1602,-14.848 -29.53894,-15.4189 -1.80133,-0.072 -3.20106,-0.1947 -3.1105,-0.2727 0.0906,-0.078 1.64126,-0.3047 3.44666,-0.5036 14.96874,-1.6491 23.43198,-6.529 26.09363,-15.0489 0.43437,-1.3903 0.48539,-1.9513 0.48332,-5.2881 -10e-4,-3.6533 -0.0148,-3.7704 -0.64938,-5.5487 -0.88657,-2.4843 -1.75471,-3.8742 -3.69506,-5.9145 -5.60257,-5.8914 -15.8945,-9.1519 -33.18676,-10.5115 -7.85117,-0.6172 -15.30432,-0.7317 -47.95353,-0.7317 l -33.0234,0 z m 50.49431,8.4027 c 8.08138,0 10.95012,0.2546 15.44179,1.3514 9.50695,2.3215 14.22666,7.4495 13.83254,15.0273 -0.2551,4.905 -2.6756,8.3265 -7.74519,10.9448 -4.46112,2.3041 -10.46888,3.5926 -19.04101,4.0866 -3.98185,0.2294 -16.34405,0.2831 -16.55558,0.072 -0.21031,-0.2102 -0.15095,-22.8916 0.0662,-25.2984 0.28756,-3.1882 0.95377,-4.3939 2.88505,-5.2247 1.92387,-0.8276 3.48696,-0.962 11.11625,-0.9585 z m -3.34541,42.6425 c 10.178,0.073 17.58715,0.8005 23.32199,2.2707 10.54358,2.7032 16.00072,8.1371 16.00072,15.9346 0,3.783 -1.01506,6.2571 -3.63702,8.8617 -1.50737,1.4973 -2.01048,1.8449 -4.27154,2.9484 -5.14978,2.5135 -10.78781,3.5792 -20.96482,3.9624 -5.71543,0.215 -6.64647,0.214 -12.49599,-0.02 -7.16585,-0.287 -8.2327,-1.0096 -8.63218,-5.8443 -0.10584,-1.2806 -0.16666,-8.1141 -0.135,-15.1853 l 0.0581,-12.8565 6.221,-0.064 c 1.57015,-0.016 3.0808,-0.019 4.5348,-0.01 z m -136.676999,-51.0465 -27.192566,46.5467 c -14.955545,25.6012 -27.19121544,46.5987 -27.19121544,46.6616 0,0.06 3.51121564,0.089 7.80324864,0.06 l 7.8032478,-0.054 6.763715,-12.4906 6.763716,-12.4892 27.345121,0.047 27.343771,0.047 6.873069,12.442 6.873069,12.442 20.268193,0.054 c 11.14771,0.029 20.2682,0.023 20.2682,-0.014 0,-0.037 -11.65772,-21.0088 -25.90598,-46.6062 l -25.905972,-46.5414 -15.954807,-0.053 -15.95481,-0.053 z m 3.699118,18.4051 c 0.10546,0.112 15.666735,29.0998 20.482852,38.1563 l 0.247056,0.4657 -21.175422,0 c -12.907035,0 -21.148702,-0.075 -21.106572,-0.1917 0.321416,-0.8932 21.43956,-38.5498 21.552086,-38.4303 z m 1179.065711,75.2016 c -8.4846,-1.0224 -15.8185,-3.7191 -23.0177,-8.4638 -2.184,-1.4394 -3.586,-2.4995 -7.3207,-5.536 -0.3989,-0.3242 -0.3224,-0.4392 2.5516,-3.8363 1.6296,-1.926 3.0818,-3.6311 3.2274,-3.789 0.2234,-0.2425 0.3583,-0.2102 0.8679,0.2073 5.6304,4.6146 7.9896,6.2176 12.1827,8.2778 4.3694,2.1468 8.3079,3.3159 13.2714,3.9394 2.8052,0.3525 8.3502,0.3096 10.7117,-0.083 9.4137,-1.5643 15.2243,-7.0758 15.6517,-14.8457 0.3035,-5.519 -1.8858,-9.7289 -6.5075,-12.513 -4.15,-2.5 -8.0664,-3.7644 -20.6854,-6.6781 -4.3815,-1.0117 -10.6103,-3.0768 -13.6767,-4.5343 -5.7641,-2.7399 -9.8615,-6.3663 -11.9793,-10.6021 -1.3944,-2.7892 -2.0402,-5.6854 -2.1732,-9.7462 -0.2483,-7.5822 2.1127,-13.4407 7.4342,-18.4466 6.2164,-5.848 15.0425,-8.5393 26.1549,-7.9753 7.4988,0.3807 13.0191,1.7482 19.1241,4.7377 2.7864,1.3644 7.6518,4.4405 9.2782,5.8661 l 0.7762,0.6803 -2.9201,3.8363 c -1.6061,2.1099 -2.994,3.8637 -3.0843,3.8972 -0.09,0.033 -0.8985,-0.4923 -1.796,-1.1684 -3.9078,-2.9436 -8.2134,-5.2486 -12.4214,-6.6495 -13.3604,-4.4481 -26.6362,-1.3728 -30.8007,7.1349 -1.0825,2.2112 -1.439,3.7296 -1.4347,6.109 0.017,9.3523 5.868,13.6374 24.3619,17.8418 8.0628,1.833 12.3317,3.2106 17.0041,5.4875 6.8159,3.3212 10.994,7.7203 12.814,13.4915 0.8153,2.5853 1.0411,4.6812 0.9225,8.5644 -0.1269,4.1562 -0.6445,6.4134 -2.2369,9.754 -1.3094,2.7468 -2.5304,4.4595 -4.7617,6.6789 -4.5609,4.5368 -10.8302,7.3664 -18.5687,8.3809 -2.9775,0.3903 -9.6383,0.3811 -12.9495,-0.018 z m 138.3135,0.5413 c -9.1737,-0.7186 -17.4193,-3.841 -24.5404,-9.2927 -13.2599,-10.1514 -19.9882,-27.4112 -17.6384,-45.2468 2.7255,-20.6882 17.5945,-36.6409 37.5023,-40.2356 7.4027,-1.3368 16.6923,-0.8828 23.8089,1.1634 7.1104,2.0445 13.4621,5.7288 19.6219,11.3816 l 1.4349,1.3168 -3.4423,3.6999 c -1.8933,2.0349 -3.5117,3.7291 -3.5965,3.7648 -0.085,0.036 -0.7046,-0.4411 -1.3775,-1.0597 -6.0654,-5.5761 -13.0077,-9.3193 -19.8493,-10.7025 -14.7615,-2.9844 -29.055,2.6789 -37.1219,14.7083 -3.1275,4.6635 -5.0755,9.6379 -6.1345,15.6643 -0.5669,3.2258 -0.6714,9.5162 -0.2119,12.7407 2.8954,20.3158 18.8669,33.862 38.3777,32.5501 9.4853,-0.6378 16.8186,-4.0048 25.316,-11.6237 l 1.7934,-1.608 3.363,3.3676 3.3631,3.3677 -2.1073,2.0226 c -8.3564,8.0207 -17.0683,12.3452 -27.5707,13.6861 -3.0898,0.3944 -8.2319,0.5512 -10.9905,0.3351 z m -867.82921,0.4809 c -37.43288,-1.161 -59.60145,-12.0667 -66.46518,-32.6969 -3.36096,-10.102 -3.11712,-22.6056 0.63157,-32.3877 4.78675,-12.4908 16.01414,-21.4497 32.99444,-26.3279 7.41327,-2.1298 16.64048,-3.5963 26.72186,-4.247 11.62484,-0.7504 31.84991,-0.3199 44.0654,0.9378 5.6613,0.5829 20.85198,2.7321 21.92902,3.1026 0.2034,0.07 0.25686,2.6013 0.24832,11.76 -0.0104,11.0421 -0.0299,11.6434 -0.36289,11.1598 -3.46589,-5.0324 -8.65109,-9.3777 -14.99352,-12.5646 -5.96693,-2.9983 -13.182,-5.0482 -21.12923,-6.0033 -3.84298,-0.4619 -12.0432,-0.6359 -15.55249,-0.3301 -9.72263,0.8473 -17.60003,3.5179 -24.09513,8.1685 -5.07648,3.6349 -8.82378,8.1023 -11.68973,13.9364 -1.57074,3.1974 -2.55457,6.0673 -3.34109,9.7462 -0.54212,2.5357 -0.57611,2.9974 -0.57231,7.7762 0.003,4.7216 0.0435,5.2658 0.56289,7.7029 1.14504,5.373 3.04147,9.9733 5.8433,14.1743 6.59461,9.8879 16.57633,15.5387 31.01104,17.5555 3.01318,0.421 13.58666,0.3579 17.52247,-0.1045 16.66519,-1.9583 29.44789,-8.4834 36.43484,-18.5988 0.33415,-0.4838 0.3508,0.1161 0.31105,11.1994 l -0.042,11.7105 -0.93315,0.1596 c -6.77838,1.1594 -15.31778,2.3515 -21.15139,2.9528 -9.90877,1.0214 -26.80631,1.5639 -37.94809,1.2183 z m -195.13197,0 c -9.0146,-0.2816 -24.25333,-1.4612 -35.82196,-2.7728 -1.96704,-0.2231 -3.67004,-0.4056 -3.78444,-0.4056 -0.13684,0 -0.20799,-4.4069 -0.20799,-12.8836 l 0,-12.8836 1.08868,0.9587 c 4.9037,4.3182 11.7352,8.7126 18.9222,12.1716 9.19231,4.4242 17.43891,6.8884 25.71346,7.6836 3.28006,0.3151 12.11267,0.1194 14.99719,-0.3324 8.93903,-1.4002 12.94396,-5.0393 13.2597,-12.0487 0.0813,-1.8043 0.0295,-2.5196 -0.24007,-3.3178 -1.28677,-3.8098 -6.04297,-6.6481 -15.75718,-9.4031 -1.95825,-0.5553 -7.05748,-1.8184 -11.33159,-2.8068 -16.98196,-3.9273 -23.29408,-5.7785 -30.1565,-8.8443 -11.20126,-5.0041 -17.28046,-12.1415 -17.90526,-21.022 -0.33048,-4.6974 0.39954,-8.4108 2.31146,-11.7578 7.31539,-12.806 28.27197,-19.3799 58.09371,-18.2234 15.29839,0.5932 26.88738,1.7325 38.51835,3.7866 l 3.68075,0.65 0,11.7162 0,11.7161 -1.07689,-1.5359 c -1.49796,-2.1364 -4.86445,-5.5443 -7.26903,-7.3584 -7.1416,-5.3877 -16.63223,-8.933 -27.73587,-10.3609 -3.5307,-0.454 -11.41171,-0.623 -15.00367,-0.3216 -11.69123,0.981 -17.86673,4.3778 -19.5052,10.7286 -0.50705,1.9654 -0.43451,3.72 0.207,5.0073 0.85418,1.7142 2.82275,3.3545 5.76701,4.8054 4.44227,2.1891 9.23503,3.6205 22.9729,6.8611 14.09184,3.3241 20.38758,5.0424 26.21616,7.1551 13.71825,4.9728 21.14788,11.0828 23.34885,19.202 0.62843,2.3182 0.67229,7.0966 0.0882,9.6103 -2.50924,10.7989 -12.66849,17.9301 -30.72066,21.5641 -10.37922,2.0894 -24.93154,3.0912 -38.66933,2.662 z"
           style="fill:#2c2723"
           id="path7025" />
      </g>
    </g>
  </g>
</svg>
