<svg xmlns="http://www.w3.org/2000/svg" viewBox="0 0 137.59 27.32"><defs><style>.cls-1{fill:#393939}</style></defs><g id="Layer_2" data-name="Layer 2"><g id="Layer_1-2" data-name="Layer 1"><path class="cls-1" d="M57.67 4.71h2.93l6.53 16.8h-2.9l-1.54-4h-7.1l-1.54 4h-2.9zm-1.05 10.17h5l-2.48-6.55zm19.89-4.68l-1 2.59a3.31 3.31 0 0 0-1.37-.26 3 3 0 0 0-2.54 1.54v7.44h-2.89V10.13h2.74v1.66a3.71 3.71 0 0 1 3.1-1.94 6.19 6.19 0 0 1 1.96.35zm9.27 7.52l1.9 1.92A6.16 6.16 0 0 1 83 21.8a6 6 0 1 1 0-12 6.1 6.1 0 0 1 4.63 2.2l-2 1.78A3.54 3.54 0 0 0 83 12.53a3.15 3.15 0 0 0-3.19 3.29A3.15 3.15 0 0 0 83 19.11a3.36 3.36 0 0 0 2.78-1.39zm14.64-7.59v11.38h-2.67V20a3.93 3.93 0 0 1-3.43 1.78 5.71 5.71 0 0 1-5.54-6 5.71 5.71 0 0 1 5.54-6 4.08 4.08 0 0 1 3.43 1.78v-1.43zm-2.88 4a3.18 3.18 0 0 0-2.69-1.58 3.06 3.06 0 0 0-3.14 3.29 3.06 3.06 0 0 0 3.14 3.29 3.18 3.18 0 0 0 2.69-1.58zm15.55.01v7.37h-2.88v-6.65a2.1 2.1 0 0 0-2.21-2.33 2.81 2.81 0 0 0-2.3 1.47v7.51h-2.88V10.13h2.69v1.66a3.93 3.93 0 0 1 3.41-1.94 4.08 4.08 0 0 1 4.17 4.29zm2.45 9.74a2.7 2.7 0 0 0 1.51.74c1 0 1.39-.29 1.94-1.68l.46-1.18-5.55-11.63h3.19l3.84 8.33 3-8.33H127l-5.52 13.92c-1 2.5-2.59 3.26-4.27 3.26a5 5 0 0 1-3-1.2zm13.56-6.24a5.35 5.35 0 0 0 3.43 1.63c1.18 0 2.16-.34 2.16-1s-.53-.89-2.26-1.25c-2.26-.48-4.22-1.44-4.22-3.6 0-1.78 1.78-3.55 4.9-3.55a7.26 7.26 0 0 1 4.27 1.39l-1.44 2.11a5.28 5.28 0 0 0-2.83-1c-1.08 0-2.06.38-2.06 1.08s.77.86 2.69 1.27c2.26.48 3.86 1.22 3.86 3.58 0 1.94-2.06 3.5-5 3.5a7.09 7.09 0 0 1-5.14-2.06zM29.85 24a2.16 2.16 0 0 1-2-1.26l-9-19.69a2.15 2.15 0 0 1 3.92-1.79l9 19.69a2.16 2.16 0 0 1-2 3.05zm-18.47 0H2.15a2.15 2.15 0 1 1 0-4.31h9.22a2.15 2.15 0 1 1 0 4.31z"/><path class="cls-1" d="M11.83 24a2.16 2.16 0 0 1-2-3.05l9-19.69a2.15 2.15 0 0 1 3.92 1.8l-9 19.69A2.16 2.16 0 0 1 11.83 24z"/></g></g></svg>