<?xml version="1.0" encoding="UTF-8"?>
<!-- Generator: Adobe Illustrator 24.1.3, SVG Export Plug-In . SVG Version: 6.00 Build 0)  -->
<svg version="1.1" id="Layer_1" xmlns="http://www.w3.org/2000/svg" xmlns:xlink="http://www.w3.org/1999/xlink" x="0px" y="0px" viewBox="0 0 676.7 265.4" style="enable-background:new 0 0 676.7 265.4;" xml:space="preserve">
<style type="text/css">
	.st0{fill:#000000;}
	.st1{fill:#F55449;}
</style>
<rect x="424.3" y="0" class="st0" width="34.9" height="183.7"/>
<polygon class="st0" points="632,0 495.8,0 495.8,35.1 546.4,35.1 546.4,183.7 581.3,183.7 581.3,35.1 632,35.1 "/>
<g>
	<path class="st0" d="M312.3,148.8c-31.4,0-56.9-25.5-56.9-56.9c0-31.4,25.5-56.9,56.9-56.9c17.4,0,33.6,7.8,44.5,21.4l27.3-21.8   C366.6,12.6,340.4,0,312.3,0c-50.7,0-91.9,41.2-91.9,91.9s41.2,91.9,91.9,91.9H353v-34.9L312.3,148.8L312.3,148.8z"/>
</g>
<polygon class="st0" points="310.3,82.7 310.3,117.7 353,117.7 353,148.8 387.9,148.8 387.9,82.7 "/>
<g>
	<path class="st0" d="M96.7,0H69.9v34.9h26.8c31.4,0,56.9,25.5,56.9,56.9s-25.5,56.9-56.9,56.9H69.9V34.9H34.9v148.8h61.7   c50.6,0,91.9-41.2,91.9-91.9C188.5,41.2,147.3,0,96.7,0"/>
</g>
<rect y="0" class="st1" width="34.9" height="34.9"/>
<g>
	<path class="st0" d="M390.5,230.6c-1-5.2-5.2-11.9-16.4-11.9c-8.6,0-16,5.9-16,14.4c0,6.6,4.6,11.7,12.2,13.1l6.1,1.1   c3,0.6,4.8,2.2,4.8,4.5c0,2.8-2.4,4.7-6.3,4.7c-6.1,0-8.9-3.6-9.3-7.7l-9.2,2.2c0.6,6.3,5.9,14.3,18.3,14.3   c10.7,0,16.6-7.1,16.6-14.2c0-6.4-4.4-11.9-13-13.5l-6-1.1c-3.1-0.6-4.4-2.1-4.4-4.3c0-2.5,2.4-4.8,6.1-4.8c5.4,0,7.1,3.5,7.5,5.6   L390.5,230.6z M338.3,264.4v-44.8h-13.7l-11.7,30.3l-12.3-30.3h-13v44.8h9.5v-29.3l11.7,29.3h8.1l11.7-29.7v29.7H338.3z    M267.5,264.4v-9.5h-18.4v-8.6h16.7v-8.8h-16.7V229h18.4v-9.4h-28.4v44.8H267.5z M221.4,229.2v-9.5h-37.6v9.5h13.8v35.3h10v-35.3   H221.4z M168.2,230.6c-0.9-5.2-5.2-11.9-16.4-11.9c-8.6,0-16.1,5.9-16.1,14.4c0,6.6,4.6,11.7,12.2,13.1l6.1,1.1   c3,0.6,4.8,2.2,4.8,4.5c0,2.8-2.4,4.7-6.3,4.7c-6.1,0-8.9-3.6-9.3-7.7l-9.2,2.2c0.6,6.3,5.9,14.3,18.3,14.3   c10.7,0,16.6-7.1,16.6-14.2c0-6.4-4.4-11.9-13-13.5l-6-1.1c-3.1-0.6-4.4-2.1-4.4-4.3c0-2.5,2.4-4.8,6.1-4.8c5.4,0,7.1,3.5,7.5,5.6   L168.2,230.6z M96.1,245.7v18.7h10v-18.7l15.7-26.1h-11.1l-9.3,16.6l-9.2-16.6H80.5L96.1,245.7z M67,230.6   c-0.9-5.2-5.2-11.9-16.4-11.9c-8.6,0-16.1,5.9-16.1,14.4c0,6.6,4.6,11.7,12.2,13.1l6.1,1.1c3,0.6,4.8,2.2,4.8,4.5   c0,2.8-2.4,4.7-6.3,4.7c-6.1,0-8.9-3.6-9.3-7.7l-9.2,2.2c0.6,6.3,5.9,14.3,18.3,14.3c10.7,0,16.6-7.1,16.6-14.2   c0-6.4-4.4-11.9-13-13.5l-6-1.1c-3.1-0.6-4.4-2.1-4.4-4.3c0-2.5,2.4-4.8,6.1-4.8c5.4,0,7.1,3.5,7.5,5.6L67,230.6z"/>
</g>
<path class="st0" d="M642,0v3.2h4.6v11.7h3.3V3.2h4.6V0H642z M672.1,0l-3.9,10l-4.1-10h-4.3v14.8h3.1V5.1l3.9,9.7h2.7l3.9-9.8v9.8  h3.2V0H672.1z"/>
</svg>