<?xml version="1.0" encoding="utf-8"?>
<!-- Generator: Adobe Illustrator 21.1.0, SVG Export Plug-In . SVG Version: 6.00 Build 0)  -->
<svg version="1.1" id="Layer_1" xmlns="http://www.w3.org/2000/svg" xmlns:xlink="http://www.w3.org/1999/xlink" x="0px" y="0px"
	 viewBox="0 0 99.7 32" style="enable-background:new 0 0 99.7 32;" xml:space="preserve">
<style type="text/css">
	.st0{fill:#0973B9;}
	.st1{fill:#00A551;}
	.st2{fill:#24B24C;}
</style>
<g>
	<path class="st0" d="M40.2,21c1.8-1.9,3.7-3.7,5.6-5.6c0,0.1,0,0.1,0,0.2c0,1.8,0,3.6,0,5.4c0,0.2,0,0.2-0.2,0.2
		c-1.6,0-3.1,0-4.7,0C40.6,21.2,40.4,21.1,40.2,21C40.2,21.1,40.2,21,40.2,21z"/>
	<path class="st1" d="M59.4,1.6c0.2,0.3,0.3,0.7,0.3,1.1c0,4.8,0,9.6,0,14.4c0,0.7,0,1.5,0,2.2s-0.3,1.2-0.8,1.6
		c-0.3,0.2-0.6,0.3-1,0.3c-2.3,0-4.6,0-6.8,0c-1.4,0-2.8,0-4.1,0c-0.3,0-0.3,0-0.3-0.2c0-2.1,0-4.2,0-6.3c0-0.1,0-0.2,0.1-0.3
		c1.5-1.5,3-3,4.5-4.5c1.2-1.2,2.3-2.4,3.5-3.6c1.5-1.5,3-3,4.5-4.5C59.3,1.7,59.3,1.6,59.4,1.6z"/>
	<path class="st2" d="M59.4,1.6c0.2,0.3,0.3,0.7,0.3,1.1c0,4.8,0,9.6,0,14.4c0,0.7,0,1.5,0,2.2s-0.3,1.2-0.8,1.6
		c-0.3,0.2-0.6,0.3-1,0.3c-2.3,0-4.6,0-6.8,0c-1.4,0-2.8,0-4.1,0c-0.3,0-0.3,0-0.3-0.2c0-2.1,0-4.2,0-6.3c0-0.1,0-0.2,0.1-0.3
		c1.5-1.5,3-3,4.5-4.5c1.2-1.2,2.3-2.4,3.5-3.6c1.5-1.5,3-3,4.5-4.5C59.3,1.7,59.3,1.6,59.4,1.6z"/>
	<path class="st2" d="M39.5,20.5c-0.3-0.4-0.4-0.7-0.4-1.1c0-2.4,0-4.7,0-7.1c0-1.1,0-2.2,0-3.3c0-0.2,0-0.3,0.2-0.4
		c1.2-1.2,2.4-2.4,3.5-3.6c0.9-0.9,1.8-1.9,2.8-2.8c0,0,0.1-0.1,0.2-0.2c0,0.1,0,0.1,0,0.2c0,3.9,0,7.8,0,11.7c0,0.1,0,0.2-0.1,0.3
		c-1.2,1.2-2.4,2.4-3.6,3.7c-0.8,0.8-1.6,1.6-2.3,2.4C39.6,20.3,39.6,20.4,39.5,20.5z"/>
	<path class="st0" d="M46.7,13.1c0-0.1,0-0.2,0-0.2c0-4,0-8,0-12c0-0.3,0-0.3,0.3-0.3c3.7,0,7.3,0,11,0c0.3,0,0.5,0.1,0.8,0.3
		C54.7,5,50.7,9,46.7,13.1z"/>
	<path class="st0" d="M39.1,7.4c0-0.6,0-1.1,0-1.6c0-1,0-2.1,0-3.1c0-0.5,0.1-1,0.5-1.3c0.3-0.4,0.7-0.6,1.2-0.6c1.6,0,3.2,0,4.8,0
		c0,0,0,0,0.1,0C43.5,2.9,41.3,5.1,39.1,7.4z"/>
</g>
<path d="M20.158,24.659c0.43,0,0.828-0.003,1.225,0.004c0.037,0.001,0.09,0.056,0.107,0.098c0.344,0.847,0.684,1.695,1.024,2.543
	c0.121,0.301,0.242,0.603,0.363,0.904c0.013,0.032,0.029,0.064,0.055,0.121c0.078-0.2,0.147-0.377,0.215-0.553
	c0.39-1.005,0.781-2.01,1.169-3.016c0.029-0.075,0.061-0.106,0.145-0.104c0.361,0.005,0.723,0.002,1.109,0.002
	c-0.029,0.052-0.043,0.094-0.069,0.124c-0.147,0.163-0.15,0.361-0.125,0.557c0.105,0.848,0.218,1.695,0.326,2.543
	c0.05,0.39,0.084,0.783,0.151,1.17c0.026,0.148,0.121,0.285,0.189,0.425c0.024,0.049,0.062,0.092,0.105,0.152
	c-0.444,0-0.873,0-1.301,0c0.061-0.096,0.13-0.188,0.179-0.289c0.08-0.166,0.05-0.342,0.029-0.519
	c-0.083-0.701-0.158-1.404-0.236-2.106c-0.042-0.379-0.083-0.758-0.124-1.137c-0.002-0.014-0.005-0.028-0.014-0.073
	c-0.579,1.409-1.147,2.791-1.718,4.182c-0.161-0.101-0.294-0.226-0.373-0.387c-0.209-0.428-0.413-0.86-0.599-1.298
	c-0.331-0.778-0.648-1.563-0.971-2.344c-0.017-0.04-0.036-0.079-0.077-0.119c-0.022,0.144-0.044,0.288-0.066,0.432
	c-0.136,0.925-0.272,1.849-0.407,2.774c-0.018,0.122-0.035,0.244-0.038,0.367c-0.004,0.216,0.155,0.351,0.285,0.518
	c-0.421,0-0.826,0-1.241,0c0.068-0.094,0.135-0.177,0.193-0.266c0.186-0.285,0.223-0.613,0.271-0.938
	c0.114-0.77,0.233-1.539,0.347-2.308c0.046-0.313,0.086-0.628,0.126-0.942c0.019-0.152-0.014-0.286-0.144-0.385
	C20.232,24.764,20.208,24.72,20.158,24.659z"/>
<path d="M26.997,24.659c0.122,0,0.22,0,0.319,0c0.273,0,0.547,0.004,0.82-0.002c0.094-0.002,0.139,0.025,0.175,0.116
	c0.453,1.14,0.912,2.278,1.37,3.417c0.018,0.044,0.037,0.087,0.062,0.145c0.249-0.63,0.492-1.245,0.735-1.86
	c0.225-0.571,0.452-1.14,0.673-1.713c0.032-0.082,0.073-0.106,0.157-0.105c0.357,0.004,0.715,0.002,1.071,0.002
	c0.004,0.015,0.01,0.026,0.008,0.028c-0.26,0.254-0.19,0.576-0.158,0.876c0.072,0.686,0.166,1.371,0.255,2.055
	c0.06,0.461,0.124,0.923,0.191,1.383c0.031,0.216,0.143,0.398,0.269,0.571c0.011,0.015,0.019,0.032,0.036,0.06
	c-0.444,0-0.874,0-1.32,0c0.051-0.06,0.093-0.106,0.131-0.155c0.126-0.163,0.123-0.355,0.105-0.543
	c-0.041-0.427-0.096-0.854-0.145-1.28c-0.069-0.594-0.137-1.188-0.207-1.782c-0.013-0.11-0.028-0.22-0.066-0.332
	c-0.559,1.381-1.118,2.762-1.68,4.148c-0.249-0.172-0.434-0.382-0.546-0.653c-0.467-1.13-0.934-2.26-1.402-3.391
	c-0.016-0.04-0.035-0.079-0.067-0.149c-0.054,0.364-0.102,0.695-0.151,1.026c-0.122,0.805-0.242,1.611-0.367,2.415
	c-0.034,0.216-0.007,0.408,0.162,0.562c0.04,0.037,0.087,0.066,0.131,0.099c-0.01,0.012-0.019,0.024-0.029,0.035
	c-0.403,0-0.806,0-1.221,0c0.015-0.027,0.023-0.049,0.037-0.065c0.268-0.316,0.369-0.694,0.423-1.095
	c0.096-0.704,0.2-1.406,0.302-2.11c0.059-0.409,0.125-0.817,0.171-1.227c0.01-0.089-0.047-0.191-0.089-0.279
	C27.118,24.792,27.06,24.739,26.997,24.659z"/>
<path d="M17.73,24.666c0.443,0,0.885,0,1.352,0c-0.306,0.284-0.29,0.649-0.294,0.995c-0.012,0.993-0.005,1.986-0.003,2.979
	c0,0.132,0.006,0.266,0.025,0.396c0.031,0.215,0.064,0.432,0.288,0.593c-0.376,0-0.717,0-1.072,0c0-0.117,0-0.234,0-0.382
	c-0.084,0.059-0.143,0.105-0.205,0.145c-0.558,0.357-1.162,0.487-1.804,0.31c-0.403-0.111-0.754-0.329-0.962-0.713
	c-0.135-0.25-0.201-0.526-0.205-0.809c-0.013-0.888-0.016-1.776-0.021-2.664c-0.003-0.466,0-0.466-0.257-0.847
	c0.445,0,0.882,0,1.348,0c-0.178,0.14-0.237,0.324-0.264,0.519c-0.02,0.147-0.036,0.295-0.037,0.443
	c-0.004,0.671-0.006,1.343,0.001,2.014c0.003,0.269,0.02,0.538,0.05,0.805c0.044,0.38,0.388,0.713,0.798,0.746
	c0.317,0.026,0.636,0.03,0.945-0.111c0.367-0.168,0.559-0.444,0.566-0.833c0.017-0.904,0.017-1.808,0.019-2.713
	c0-0.124-0.018-0.248-0.037-0.371C17.932,24.985,17.881,24.808,17.73,24.666z"/>
<path d="M6.689,27.102c0.315,0,0.631,0,0.956,0c0.002,0.037,0.007,0.072,0.007,0.106c0,0.74-0.001,1.479,0.002,2.219
	c0,0.091-0.025,0.123-0.117,0.136c-0.373,0.051-0.744,0.121-1.118,0.166c-0.409,0.049-0.817,0.01-1.222-0.058
	C4.778,29.6,4.39,29.444,4.06,29.18c-0.388-0.31-0.675-0.701-0.826-1.187c-0.107-0.344-0.145-0.695-0.106-1.046
	c0.03-0.263,0.082-0.537,0.191-0.776c0.348-0.769,0.933-1.284,1.755-1.508c0.672-0.184,1.344-0.125,2.011,0.032
	c0.026,0.006,0.059,0.053,0.06,0.081c0.005,0.233,0.003,0.465,0.003,0.712c-0.164-0.079-0.314-0.16-0.472-0.224
	c-0.638-0.26-1.263-0.235-1.859,0.12c-0.352,0.21-0.575,0.527-0.707,0.913c-0.168,0.49-0.165,0.984-0.049,1.482
	c0.166,0.716,0.724,1.254,1.512,1.379c0.443,0.07,0.871,0.026,1.295-0.101c0.038-0.011,0.092-0.062,0.092-0.094
	c-0.001-0.426-0.003-0.852-0.023-1.277C6.926,27.472,6.877,27.261,6.689,27.102z"/>
<path d="M10.305,28.624c0.126,0.066,0.228,0.118,0.329,0.172c0.326,0.176,0.66,0.331,1.034,0.371
	c0.359,0.038,0.709,0.021,1.043-0.153c0.4-0.208,0.58-0.828,0.099-1.148c-0.309-0.206-0.642-0.378-0.973-0.548
	c-0.351-0.18-0.708-0.352-0.993-0.628c-0.195-0.189-0.336-0.42-0.332-0.709c0.001-0.116,0.003-0.233,0.019-0.348
	c0.04-0.293,0.186-0.52,0.435-0.687c0.501-0.334,1.055-0.426,1.641-0.366c0.275,0.028,0.548,0.076,0.823,0.108
	c0.08,0.009,0.11,0.036,0.109,0.119c-0.005,0.236-0.002,0.473-0.002,0.738c-0.063-0.04-0.109-0.066-0.152-0.097
	c-0.442-0.314-0.938-0.415-1.464-0.328c-0.261,0.043-0.565,0.271-0.583,0.55c-0.016,0.235,0.059,0.44,0.257,0.558
	c0.395,0.236,0.806,0.444,1.208,0.669c0.213,0.119,0.423,0.246,0.629,0.377c0.43,0.274,0.591,0.853,0.436,1.33
	c-0.101,0.312-0.297,0.538-0.556,0.729c-0.43,0.317-0.921,0.434-1.438,0.431c-0.43-0.003-0.85-0.109-1.261-0.235
	c-0.025-0.008-0.053-0.038-0.061-0.063C10.468,29.196,10.391,28.924,10.305,28.624z"/>
<path d="M36.898,25.244c-0.263,0-0.517-0.019-0.766,0.005c-0.244,0.023-0.501,0.036-0.689,0.246
	c-0.007-0.008-0.014-0.015-0.021-0.023c0.07-0.257,0.137-0.515,0.214-0.77c0.007-0.024,0.079-0.041,0.121-0.041
	c0.776-0.002,1.552-0.002,2.327-0.002c0.322,0,0.643,0,0.965,0c0.043,0,0.087,0,0.148,0c-0.077,0.275-0.15,0.536-0.223,0.795
	c-0.016,0-0.026,0.003-0.03,0c-0.168-0.154-0.369-0.219-0.594-0.217c-0.224,0.002-0.448,0-0.681,0
	c-0.002,0.036-0.005,0.078-0.005,0.121c0,1.097-0.001,2.195,0.001,3.292c0,0.152,0.014,0.305,0.03,0.456
	c0.021,0.199,0.117,0.364,0.269,0.523c-0.461,0-0.901,0-1.314,0c0.069-0.162,0.156-0.326,0.208-0.501
	c0.038-0.128,0.04-0.27,0.04-0.406c0.003-1.142,0.002-2.283,0.002-3.425C36.901,25.277,36.898,25.257,36.898,25.244z"/>
<path d="M1.058,24.665c0.465,0,0.901,0,1.362,0c-0.276,0.284-0.293,0.627-0.293,0.975c0,1.431-0.001,2.862,0.001,4.292
	c0.001,0.484-0.237,0.817-0.644,1.048c-0.302,0.172-0.636,0.233-0.983,0.275c0.064-0.05,0.125-0.104,0.191-0.15
	c0.434-0.301,0.631-0.733,0.64-1.243c0.02-1.109,0.023-2.218,0.027-3.326c0.002-0.409-0.012-0.819-0.019-1.229
	C1.336,25.064,1.24,24.858,1.058,24.665z"/>
<path d="M33.559,24.666c0.447,0,0.891,0,1.343,0c-0.055,0.076-0.117,0.143-0.156,0.221c-0.107,0.214-0.121,0.449-0.121,0.682
	c-0.002,1.094-0.001,2.187,0.007,3.281c0.001,0.154,0.029,0.313,0.074,0.461c0.035,0.113,0.116,0.212,0.178,0.32
	c-0.431,0-0.876,0-1.34,0c0.29-0.267,0.283-0.618,0.286-0.954c0.009-1.025,0.006-2.051,0.001-3.076
	c-0.001-0.24-0.011-0.484-0.119-0.706C33.676,24.817,33.617,24.75,33.559,24.666z"/>
<path d="M53.132,25.876c-0.211-0.408-0.517-0.748-0.915-0.96c-0.479-0.255-0.995-0.433-1.517-0.383
	c-0.605-0.019-0.86,0.071-1.276,0.262c-0.683,0.313-1.135,0.841-1.404,1.528c-0.138,0.35-0.181,0.718-0.138,1.1
	c0.04,0.359,0.112,0.703,0.285,1.022c0.291,0.534,0.707,0.935,1.274,1.164c0.579,0.233,1.179,0.258,1.791,0.171
	c1.209-0.172,2.144-1.429,2.196-2.317C53.461,26.901,53.389,26.373,53.132,25.876z M52.157,28.535
	c-0.338,0.433-0.787,0.687-1.341,0.731c-0.667,0.053-1.201-0.182-1.621-0.715c-0.326-0.413-0.443-0.889-0.46-1.387
	c-0.018-0.506,0.124-0.983,0.445-1.391c0.342-0.434,0.794-0.665,1.342-0.7c0.503-0.033,0.945,0.109,1.334,0.448
	c0.515,0.448,0.689,1.027,0.715,1.514C52.577,27.687,52.461,28.145,52.157,28.535z"/>
<path d="M91.017,24.636c0.353,0,0.725,0,1.116,0c-0.333,0.321-0.296,0.729-0.298,1.122c-0.004,1.295-0.002,2.59-0.002,3.886
	c0,0.049,0,0.098,0,0.155c-0.179,0.031-0.328-0.019-0.466-0.116c-0.355-0.25-0.611-0.594-0.876-0.929
	c-0.757-0.958-1.512-1.916-2.269-2.874c-0.02-0.026-0.042-0.051-0.077-0.093c-0.006,0.044-0.014,0.072-0.014,0.1
	c-0.001,1.073,0,2.146-0.001,3.22c0,0.171,0.054,0.322,0.164,0.453c0.034,0.041,0.067,0.082,0.113,0.138c-0.391,0-0.763,0-1.153,0
	c0.291-0.271,0.291-0.621,0.292-0.964c0.005-1.049,0.003-2.097,0.001-3.146c0-0.131-0.007-0.263-0.027-0.393
	c-0.03-0.205-0.081-0.404-0.28-0.553c0.056-0.006,0.086-0.012,0.116-0.012c0.271-0.001,0.543,0.002,0.814-0.002
	c0.077-0.001,0.126,0.022,0.175,0.084c0.944,1.198,1.89,2.393,2.836,3.589c0.024,0.031,0.05,0.059,0.088,0.104
	c0.005-0.039,0.01-0.058,0.01-0.076c-0.002-0.962-0.001-1.924-0.009-2.886c-0.001-0.146-0.025-0.297-0.068-0.436
	C91.163,24.879,91.083,24.763,91.017,24.636z"/>
<path d="M47.166,29.703c-0.475,0-0.929,0-1.417,0c0.189-0.149,0.248-0.337,0.281-0.536c0.016-0.097,0.028-0.196,0.029-0.294
	c0.003-0.53,0.001-1.06,0.001-1.599c-0.909,0-1.815,0-2.73,0c-0.003,0.03-0.008,0.061-0.008,0.092
	c-0.001,0.465-0.008,0.929,0.003,1.394c0.006,0.252,0.004,0.512,0.151,0.737c0.042,0.065,0.092,0.125,0.147,0.2
	c-0.459,0-0.908,0-1.367,0c0.052-0.069,0.129-0.13,0.151-0.207c0.056-0.195,0.111-0.396,0.124-0.597
	c0.021-0.336,0.012-0.674,0.011-1.011c-0.001-0.806-0.001-1.612-0.008-2.417c-0.001-0.138-0.015-0.282-0.056-0.413
	c-0.045-0.144-0.127-0.276-0.192-0.411c0.421,0,0.872,0,1.322,0c0,0.011,0.003,0.022,0,0.026c-0.196,0.204-0.272,0.455-0.274,0.73
	c-0.004,0.419-0.001,0.837-0.001,1.265c0.904,0,1.81,0,2.731,0c0-0.122,0.002-0.24,0-0.358c-0.006-0.333-0.008-0.665-0.023-0.998
	c-0.011-0.236-0.057-0.465-0.254-0.63c-0.007-0.006-0.008-0.02-0.015-0.039c0.464,0,0.921,0,1.4,0
	c-0.056,0.061-0.106,0.107-0.145,0.161c-0.104,0.144-0.156,0.306-0.156,0.484c0,1.258-0.001,2.516,0,3.775
	C46.871,29.306,46.968,29.517,47.166,29.703z"/>
<path d="M70.216,29.803c-0.192,0.02-0.341-0.03-0.481-0.13c-0.315-0.226-0.552-0.526-0.79-0.825
	c-0.787-0.986-1.573-1.974-2.359-2.961c-0.023-0.028-0.047-0.055-0.082-0.095c-0.007,0.031-0.014,0.048-0.014,0.066
	c0.001,1.02,0.003,2.039,0.004,3.059c0,0.275,0.051,0.531,0.256,0.734c0.01,0.01,0.016,0.026,0.03,0.05c-0.382,0-0.753,0-1.142,0
	c0.314-0.307,0.291-0.696,0.292-1.074c0.004-1.012,0.003-2.023,0-3.035c0-0.143-0.011-0.288-0.032-0.43
	c-0.029-0.196-0.092-0.381-0.251-0.532c0.257,0,0.515,0.013,0.77-0.004c0.18-0.012,0.287,0.051,0.397,0.192
	c0.929,1.188,1.867,2.37,2.802,3.553c0.005,0.006,0.012,0.011,0.031,0.027c0.005-0.038,0.011-0.066,0.011-0.095
	c0-0.929,0.003-1.859-0.002-2.788c-0.001-0.159-0.017-0.323-0.06-0.474c-0.04-0.14-0.126-0.268-0.191-0.4c0.338,0,0.703,0,1.085,0
	c-0.305,0.342-0.271,0.756-0.272,1.16c-0.003,1.283-0.001,2.566-0.001,3.849C70.216,29.698,70.216,29.746,70.216,29.803z"/>
<path d="M57.998,29.722c0.702-0.014,1.405-0.022,2.107-0.046c0.491-0.016,0.952-0.153,1.376-0.408
	c0.395-0.237,0.69-0.564,0.891-0.978c0.153-0.314,0.245-0.645,0.263-0.993c0.029-0.563-0.068-1.096-0.406-1.564
	c-0.543-0.753-1.314-1.064-2.207-1.099c-0.645-0.025-1.291-0.005-1.937-0.005c-0.034,0-0.068,0.005-0.111,0.008
	c0.055,0.081,0.108,0.145,0.146,0.216c0.125,0.233,0.123,0.492,0.124,0.745c0.006,1.049,0.004,2.097,0.001,3.146
	c0,0.143-0.014,0.287-0.03,0.429c-0.022,0.194-0.096,0.369-0.242,0.511C57.983,29.698,57.99,29.71,57.998,29.722z M59.046,25.434
	c-0.002-0.13,0.048-0.172,0.16-0.192c0.439-0.079,0.875-0.066,1.308,0.037c0.301,0.071,0.531,0.264,0.757,0.462
	c0.235,0.205,0.354,0.481,0.45,0.763c0.052,0.152,0.063,0.323,0.065,0.486c0.004,0.229,0.011,0.465-0.037,0.687
	c-0.047,0.221-0.128,0.449-0.25,0.637c-0.256,0.392-0.621,0.667-1.077,0.794c-0.395,0.11-0.796,0.084-1.195,0.005
	c-0.178-0.035-0.178-0.035-0.178-0.224c0-0.571,0-1.143,0-1.714C59.05,26.593,59.055,26.013,59.046,25.434z"/>
<path d="M75.833,29.624c-0.364,0.058-0.726,0.127-1.092,0.17c-0.425,0.051-0.853,0.06-1.278-0.006
	c-0.751-0.117-1.367-0.462-1.812-1.091c-0.335-0.472-0.457-1.009-0.442-1.572c0.02-0.801,0.352-1.463,0.972-1.978
	c0.369-0.307,0.786-0.507,1.259-0.578c0.423-0.063,0.847-0.101,1.273-0.008c0.207,0.045,0.419,0.067,0.634,0.1
	c0,0.273,0,0.539,0,0.827c-0.055-0.032-0.103-0.06-0.15-0.087c-0.652-0.384-1.339-0.434-2.031-0.152
	c-0.469,0.19-0.767,0.581-0.936,1.045c-0.223,0.612-0.212,1.24,0.039,1.841c0.231,0.554,0.676,0.902,1.248,1.043
	c0.512,0.127,1.034,0.094,1.542-0.072c0.066-0.022,0.08-0.052,0.079-0.113c-0.002-0.419,0.003-0.839-0.003-1.258
	c-0.003-0.227-0.109-0.417-0.273-0.589c0.03-0.009,0.047-0.018,0.064-0.018c0.271-0.001,0.543,0.001,0.814-0.002
	c0.07-0.001,0.104,0.015,0.104,0.095c-0.003,0.781-0.002,1.562-0.003,2.344c0,0.008-0.004,0.016-0.006,0.024
	C75.834,29.601,75.834,29.612,75.833,29.624z"/>
<path d="M79.643,24.649c0,0.299,0,0.573,0,0.869c-0.059-0.038-0.107-0.065-0.151-0.098c-0.278-0.205-0.601-0.3-0.934-0.356
	c-0.285-0.048-0.569-0.008-0.824,0.132c-0.436,0.241-0.459,0.725-0.079,1.024c0.286,0.225,0.633,0.375,0.957,0.55
	c0.389,0.209,0.813,0.365,1.118,0.704c0.286,0.318,0.405,0.681,0.286,1.112c-0.135,0.493-0.475,0.789-0.911,1.002
	c-0.662,0.323-1.349,0.298-2.043,0.136c-0.151-0.035-0.343-0.039-0.438-0.135c-0.095-0.095-0.094-0.287-0.133-0.438
	c-0.04-0.154-0.078-0.308-0.123-0.488c0.141,0.083,0.26,0.151,0.378,0.222c0.4,0.243,0.844,0.358,1.301,0.364
	c0.366,0.005,0.729-0.064,1.002-0.378c0.284-0.327,0.134-0.776-0.138-0.974c-0.178-0.13-0.381-0.224-0.574-0.332
	c-0.422-0.237-0.849-0.465-1.264-0.712c-0.424-0.252-0.584-0.8-0.502-1.214c0.091-0.458,0.381-0.763,0.817-0.921
	c0.458-0.167,0.933-0.22,1.417-0.169C79.082,24.58,79.358,24.615,79.643,24.649z"/>
<path d="M97.284,28.694c-0.131,0.306-0.247,0.582-0.367,0.855c-0.013,0.029-0.046,0.059-0.076,0.069
	c-0.803,0.27-1.616,0.319-2.408-0.007c-0.808-0.333-1.34-0.939-1.534-1.801c-0.168-0.746-0.058-1.458,0.388-2.092
	c0.504-0.716,1.196-1.117,2.074-1.187c0.471-0.038,0.934,0.001,1.383,0.151c0.04,0.013,0.093,0.064,0.095,0.099
	c0.008,0.246,0.004,0.493,0.004,0.761c-0.084-0.043-0.153-0.083-0.226-0.116c-0.744-0.331-1.477-0.357-2.181,0.104
	c-0.277,0.181-0.459,0.446-0.563,0.758c-0.248,0.747-0.198,1.464,0.243,2.132c0.455,0.688,1.255,0.928,1.988,0.733
	c0.346-0.092,0.674-0.25,1.01-0.379C97.163,28.756,97.209,28.73,97.284,28.694z"/>
<path d="M54.155,24.636c0.455,0,0.905,0,1.368,0c-0.016,0.026-0.024,0.048-0.039,0.064c-0.172,0.189-0.237,0.412-0.236,0.666
	c0.004,1.184,0.004,2.369-0.001,3.553c0,0.116,0.039,0.147,0.146,0.152c0.156,0.007,0.31,0.032,0.466,0.046
	c0.563,0.052,1.094-0.051,1.59-0.326c0.032-0.018,0.065-0.035,0.098-0.052c0.007-0.004,0.015-0.005,0.042-0.013
	c-0.08,0.22-0.155,0.429-0.232,0.638c-0.041,0.111-0.058,0.262-0.139,0.319c-0.081,0.057-0.229,0.022-0.348,0.022
	c-0.86,0.001-1.719,0-2.579,0c-0.043,0-0.087,0-0.161,0c0.333-0.3,0.31-0.683,0.314-1.046c0.011-0.999,0.007-1.999,0.002-2.998
	c-0.001-0.266-0.004-0.537-0.122-0.785C54.282,24.794,54.215,24.722,54.155,24.636z"/>
<path d="M64.802,29.703c-0.479,0-0.933,0-1.427,0c0.211-0.155,0.265-0.359,0.294-0.57c0.02-0.142,0.03-0.286,0.031-0.429
	c0.003-1.019,0.009-2.038-0.004-3.057c-0.003-0.25-0.061-0.502-0.116-0.748c-0.021-0.092-0.106-0.169-0.165-0.258
	c0.455,0,0.915,0,1.392,0c-0.06,0.066-0.116,0.118-0.16,0.179c-0.099,0.137-0.143,0.295-0.143,0.463
	c-0.002,1.262-0.003,2.523,0.001,3.785C64.506,29.309,64.601,29.52,64.802,29.703z"/>
<path d="M85.036,24.637c0.45,0,0.899,0,1.363,0c-0.02,0.031-0.031,0.052-0.046,0.069c-0.174,0.189-0.233,0.414-0.233,0.667
	c0.003,1.192,0.004,2.384,0,3.575c-0.001,0.261,0.056,0.495,0.235,0.691c0.013,0.014,0.021,0.032,0.039,0.061
	c-0.461,0-0.908,0-1.381,0c0.322-0.277,0.297-0.646,0.301-0.99c0.013-1.027,0.006-2.055,0.004-3.082c0-0.127-0.006-0.255-0.025-0.38
	c-0.035-0.221-0.052-0.454-0.286-0.589C85.017,24.651,85.027,24.644,85.036,24.637z"/>
<path d="M80.791,30.527c0.099-0.115,0.19-0.205,0.26-0.309c0.07-0.104,0.119-0.222,0.181-0.341
	c-0.083-0.025-0.156-0.036-0.218-0.068c-0.168-0.087-0.22-0.239-0.222-0.419c-0.002-0.196,0.088-0.34,0.253-0.433
	c0.323-0.182,0.68,0.033,0.711,0.414c0.02,0.254-0.053,0.48-0.186,0.687c-0.1,0.154-0.223,0.293-0.331,0.441
	c-0.051,0.07-0.114,0.085-0.193,0.07C80.97,30.555,80.894,30.544,80.791,30.527z"/>
<path d="M98.997,29.348c0,0.266-0.19,0.451-0.449,0.464c-0.272,0.013-0.457-0.204-0.475-0.46c-0.018-0.254,0.218-0.483,0.472-0.474
	C98.832,28.889,99.027,29.11,98.997,29.348z"/>
</svg>
