<svg width="79" height="19" viewBox="0 0 79 19" fill="none" xmlns="http://www.w3.org/2000/svg">
<g clip-path="url(#clip0)">
<path d="M30.0615 9.7767V14.4262H28.6838V10.1113C28.6838 8.89692 28.0934 8.1975 26.8987 8.1975C25.2259 8.1975 24.8461 9.56605 24.8461 10.5298V14.4262H23.4546V7.16489H24.677L24.7477 8.36547C25.1981 7.56967 26.1115 7.05337 27.2785 7.05337C29.119 7.05337 30.0615 8.04467 30.0615 9.7767Z" fill="#444444"/>
<path d="M38.7349 11.2017H32.9014C33.0136 12.7658 34.0822 13.5065 35.5583 13.5065C36.4716 13.5065 37.3018 13.172 38.0322 12.5015L38.6504 13.4377C37.7647 14.1784 36.7391 14.5405 35.543 14.5405C34.2361 14.5405 33.2382 14.2059 32.5202 13.5217C31.8037 12.8374 31.4517 11.9301 31.4517 10.7983C31.4517 9.68175 31.7885 8.77305 32.4634 8.08878C33.1384 7.4045 34.0795 7.05617 35.2894 7.05617C36.3718 7.05617 37.2159 7.34943 37.8479 7.94972C38.4799 8.53624 38.8042 9.34581 38.8042 10.366C38.8056 10.6001 38.7779 10.8796 38.7349 11.2017ZM32.9014 10.2793H37.3434C37.3573 10.238 37.3573 10.1678 37.3573 10.07C37.3573 8.84052 36.57 8.04472 35.2908 8.04472C33.9409 8.04472 33.0275 8.84052 32.9014 10.2793Z" fill="#444444"/>
<path d="M46.4672 14.4263H44.9343L42.9094 11.5639L40.8152 14.4263H39.396L42.0806 10.837L39.4376 7.16366H40.9843L42.9524 9.87322L44.9773 7.16366H46.3826L43.7826 10.6704L46.4672 14.4263Z" fill="#444444"/>
<path d="M48.5333 12.1931V8.22785H46.8188V7.16633H47.6477C48.3933 7.16633 48.6594 6.81662 48.6594 6.09104V4.86155H49.9248V7.16633H52.4403V8.22785H49.9248V12.0815C49.9109 12.7796 50.0371 13.3661 51.0072 13.4363C51.4286 13.4363 51.9067 13.395 52.4556 13.2973L52.4833 14.4001C52.062 14.4979 51.4715 14.5392 50.6982 14.5392C49.236 14.5392 48.5333 13.6442 48.5333 12.1931Z" fill="#444444"/>
<path d="M60.7359 8.11489C61.397 8.8267 61.7199 9.72025 61.7199 10.7955C61.7199 11.8708 61.397 12.7644 60.7359 13.4762C60.0748 14.188 59.1753 14.5377 58.0236 14.5377C56.772 14.5377 55.8587 14.1329 55.2821 13.3082V16.7998H53.8906V7.16489H55.0853L55.2253 8.46322C55.7742 7.52699 56.8705 7.05337 58.0374 7.05337C59.1892 7.05337 60.0901 7.40308 60.7359 8.11489ZM59.5828 12.6955C60.0471 12.2205 60.2855 11.5927 60.2855 10.7969C60.2855 10.0011 60.0471 9.37192 59.5828 8.91206C59.1185 8.43706 58.5142 8.20025 57.7699 8.20025C57.0534 8.20025 56.463 8.43844 55.971 8.92583C55.4928 9.40083 55.2544 10.0287 55.2544 10.7969C55.2544 11.5514 55.4928 12.1792 55.971 12.668C56.4491 13.1568 57.0534 13.3936 57.7699 13.3936C58.5156 13.3936 59.1199 13.1554 59.5828 12.6955Z" fill="#444444"/>
<path d="M69.3539 7.16501H70.6331V14.4263H69.3677L69.2555 12.9875C68.7219 14.0215 67.7656 14.5378 66.3879 14.5378C65.2778 14.5378 64.406 14.1881 63.7587 13.5038C63.1115 12.8058 62.7886 11.9123 62.7886 10.837C62.7886 9.73414 63.1254 8.82544 63.7865 8.11363C64.4614 7.40182 65.3609 7.05211 66.4711 7.05211C67.7503 7.05211 68.7621 7.56841 69.268 8.50464L69.3539 7.16501ZM68.5376 12.6819C69.0296 12.1931 69.268 11.5791 69.268 10.8108C69.268 10.0425 69.0296 9.41472 68.5514 8.92595C68.0733 8.43718 67.4828 8.20037 66.7663 8.20037C65.2625 8.20037 64.2494 9.19167 64.2494 10.8122C64.2494 12.39 65.2611 13.3951 66.7663 13.3951C67.4551 13.3937 68.0455 13.1555 68.5376 12.6819Z" fill="#444444"/>
<path d="M77.6902 7.16512H79.0678L75.2301 16.8001H73.8247L74.7672 14.5104L71.689 7.16512H73.1789L74.472 10.3772L75.4837 13.0166H75.5115L76.4678 10.3772L77.6902 7.16512Z" fill="#444444"/>
<path d="M16.3724 3.57695L12.1424 13.9333C11.9775 14.3381 11.4799 14.4896 11.114 14.2459L9.20416 12.9751C8.98518 12.8291 8.68858 12.92 8.58879 13.1609L7.04344 16.899C6.91316 17.2129 7.19867 17.5392 7.52992 17.4566L17.2261 15.0155C17.8138 14.8668 18.2379 14.356 18.2698 13.7543L18.8172 3.61274C18.8422 3.15427 18.4167 2.80043 17.9676 2.90506L16.8561 3.1639C16.6371 3.21622 16.4569 3.37043 16.3724 3.57695Z" fill="#4B68FE"/>
<path d="M1.37341 6.52174L17.312 2.36652L17.3273 2.05674C17.3508 1.57898 16.8907 1.22377 16.4305 1.36558C13.3288 2.32108 4.34354 5.1229 1.07959 6.32898C1.10038 6.46804 1.23759 6.55753 1.37341 6.52174Z" fill="#4B68FE"/>
<path d="M0.775954 6.20662L15.5628 0.978866L15.567 0.651185C15.5739 0.158287 15.0708 -0.181786 14.6107 0.00546065L0.680323 5.67655C0.288095 5.8335 0.0303051 6.21213 0.0303051 6.63205L0.0136736 17.5763C0.0122876 18.474 0.86327 19.1335 1.7392 18.9132L3.19308 18.5484C3.40652 18.4947 3.58115 18.3432 3.66431 18.1408L7.42443 8.98778C7.58797 8.58988 8.07306 8.43705 8.43757 8.66698L10.723 10.1085C10.942 10.2476 11.2344 10.1539 11.3315 9.913L13.4672 4.61778C13.592 4.308 13.3148 3.98582 12.9863 4.06155L1.39132 6.74908C1.1169 6.81242 0.846639 6.63205 0.800902 6.35669L0.775954 6.20662Z" fill="#4B68FE"/>
</g>
<defs>
<clipPath id="clip0">
<path d="M0 0H79V19H0V0Z" fill="white"/>
</clipPath>
</defs>
</svg>
